<svg class="u-icon" viewBox="0 0 504 219" fill="none" xmlns="http://www.w3.org/2000/svg">
    <path d="M52.0136 212.73C52.3089 213.584 52.4953 214.304 53.2794 214.69C53.5412 214.532 53.8897 214.388 54.1528 214.147C55.3399 213.086 56.5551 212.047 57.6569 210.889C58.298 210.221 58.9607 209.57 59.5671 208.855C60.2548 208.045 61.0527 207.391 61.9353 206.824C61.9819 206.019 61.3559 205.774 60.9215 205.38C60.5389 205.047 60.1596 204.685 59.5041 204.943C58.9443 205.168 58.7357 205.64 58.4581 206.132C58.1412 206.7 57.6746 207.196 57.2579 207.709C56.6332 208.483 56.0256 209.27 55.3668 210.008C54.6719 210.782 53.8792 211.439 53.0183 212.003C52.6987 212.201 52.4034 212.438 52.0136 212.73Z" fill="black"></path>
    <path d="M79.9321 207.241C79.0502 207.04 78.3415 206.818 77.5987 207.279C77.5948 207.584 77.5331 207.956 77.5987 208.307C77.8717 209.875 78.1119 211.456 78.5122 213.003C78.7405 213.9 78.9426 214.807 79.2294 215.699C79.5542 216.711 79.6874 217.733 79.7031 218.783C80.362 219.248 80.9014 218.846 81.4644 218.685C81.95 218.536 82.4572 218.406 82.5852 217.714C82.6902 217.119 82.4001 216.693 82.1285 216.198C81.8141 215.628 81.6389 214.97 81.4244 214.346C81.0969 213.406 80.7498 212.474 80.4709 211.525C80.1815 210.526 80.0418 209.506 80.0195 208.478C80.0195 208.102 79.9741 207.726 79.9321 207.241Z" fill="black"></path>
    <path d="M38.9307 192.806C38.7515 192.036 38.642 191.42 38.1282 190.728C37.951 190.703 37.7167 190.623 37.5369 190.658C36.7265 190.794 35.8977 190.901 35.1418 191.151C34.7021 191.294 34.2481 191.412 33.8307 191.607C33.3576 191.826 32.8143 191.876 32.2158 191.818C32.1686 192.372 32.58 192.879 32.8609 193.392C33.1089 193.834 33.3537 194.294 33.7946 194.454C34.172 194.588 34.3196 194.359 34.5145 194.151C34.7363 193.91 35.0558 193.8 35.3433 193.651C35.7744 193.423 36.1943 193.178 36.6471 192.995C37.1248 192.804 37.6642 192.75 38.2489 192.8C38.4648 192.825 38.6662 192.81 38.9307 192.806Z" fill="black"></path>
    <path fill-rule="evenodd" clip-rule="evenodd" d="M163.797 145.514C163.849 146.201 163.875 146.895 163.875 147.595C163.875 162.764 151.574 175.061 136.4 175.061C127.926 175.061 120.348 171.226 115.309 165.198C111.434 175.673 101.355 183.139 89.5305 183.139C74.3567 183.139 62.0556 170.842 62.0556 155.673C62.0556 152.852 62.4809 150.13 63.2716 147.568C62.8687 147.586 62.4632 147.595 62.0563 147.595C46.8825 147.595 34.5814 135.297 34.5814 120.128C34.5814 106.808 44.0661 95.7028 56.6525 93.1929C54.9359 89.6073 53.9753 85.5919 53.9753 81.3522C53.9753 66.183 66.2763 53.8857 81.4502 53.8857C85.8657 53.8857 90.0378 54.9268 93.7348 56.7773C98.1189 47.432 107.615 40.96 118.623 40.96C126.228 40.96 133.111 44.049 138.086 49.0399C142.868 45.0068 149.046 42.5757 155.793 42.5757C168.234 42.5757 178.744 50.8425 182.126 62.1807C184.689 61.0045 187.541 60.3486 190.546 60.3486C201.703 60.3486 210.748 69.3908 210.748 80.5447C210.748 85.7539 208.775 90.502 205.536 94.0838C212.678 100.16 217.209 109.211 217.209 119.321C217.209 137.613 202.376 152.442 184.078 152.442C176.438 152.442 169.401 149.857 163.797 145.514Z" fill="#FF85B0"></path>
    <path d="M162.043 146.51L161.165 146.678C161.095 146.313 161.258 145.943 161.575 145.748C161.892 145.554 162.296 145.575 162.59 145.803L162.043 146.51ZM208.045 144.886L208.583 145.6L208.045 144.886ZM209.802 96.146C209.421 95.8311 209.369 95.2676 209.684 94.8871C209.999 94.5073 210.563 94.4542 210.943 94.7691L209.802 96.146ZM205.835 101.029C205.423 101.301 204.867 101.187 204.596 100.775C204.324 100.363 204.438 99.8078 204.85 99.5362L205.835 101.029ZM213.458 67.2757L214.171 66.7351L213.458 67.2757ZM183.311 56.3743L182.497 56.743L183.311 56.3743ZM186.581 62.2488C186.676 62.7329 186.361 63.2032 185.877 63.299C185.392 63.3948 184.922 63.0793 184.827 62.5951L186.581 62.2488ZM164.347 41.173L164.189 42.0526L164.347 41.173ZM136.777 46.4235C136.36 46.6886 135.807 46.5659 135.542 46.1493C135.277 45.7334 135.399 45.1804 135.816 44.9154L136.777 46.4235ZM140.497 50.0223C140.725 50.4599 140.554 50.9998 140.117 51.228C139.678 51.4563 139.138 51.2864 138.911 50.8482L140.497 50.0223ZM111.775 35.1601L111.661 34.2739L111.775 35.1601ZM88.1349 52.0139L88.9007 52.4751C88.8908 52.4915 88.8803 52.5079 88.8691 52.5243L88.1349 52.0139ZM88.207 53.4748C87.9249 53.8802 87.3678 53.9799 86.9623 53.6979C86.5567 53.4158 86.457 52.8588 86.7391 52.4534L88.207 53.4748ZM95.4554 55.126C95.874 55.3877 96.0007 55.9394 95.7389 56.3579C95.4771 56.7765 94.9252 56.9037 94.5065 56.6413L95.4554 55.126ZM67.3302 52.1097L67.0697 51.2549L67.3302 52.1097ZM46.5833 69.0593L47.3989 69.426L46.5833 69.0593ZM51.0729 92.2238C51.3105 92.6568 51.1517 93.2006 50.7186 93.4374C50.2855 93.6749 49.7422 93.5161 49.5047 93.0832L51.0729 92.2238ZM55.4531 89.9055C55.9216 89.75 56.4281 90.0039 56.5837 90.4723C56.7392 90.9413 56.4852 91.4471 56.0161 91.6026L55.4531 89.9055ZM30.8267 115.252L31.7178 115.329L30.8267 115.252ZM40.5837 141.243L41.1683 140.567C41.1946 140.589 41.2189 140.613 41.2425 140.638L40.5837 141.243ZM74.4499 135.794C74.6513 135.342 75.1803 135.14 75.6311 135.342C76.0819 135.543 76.2846 136.072 76.0832 136.523L74.4499 135.794ZM93.4888 158.27C92.9953 158.27 92.5943 157.869 92.5943 157.376C92.5943 156.882 92.9953 156.482 93.4888 156.482V158.27ZM155.729 170.757L155.141 170.084L155.729 170.757ZM71.6158 179.201L72.0391 178.413L71.6158 179.201ZM162.59 145.803C165.602 148.133 172.203 151.238 180.391 151.992C188.548 152.743 198.24 151.156 207.506 144.173L208.583 145.6C198.909 152.891 188.757 154.557 180.227 153.773C171.728 152.991 164.798 149.771 161.496 147.217L162.59 145.803ZM207.506 144.173C215.502 138.147 219.225 128.75 219.355 119.507C219.485 110.245 216.008 101.286 209.802 96.146L210.943 94.7691C217.661 100.334 221.279 109.866 221.143 119.532C221.007 129.215 217.103 139.18 208.583 145.6L207.506 144.173ZM204.85 99.5362C208.705 96.9949 212.658 91.6065 214.639 85.5097C216.617 79.4221 216.563 72.849 212.746 67.8155L214.171 66.7351C218.472 72.4069 218.42 79.6609 216.34 86.062C214.262 92.4554 210.099 98.2176 205.835 101.029L204.85 99.5362ZM212.746 67.8155C203.87 56.1119 191.226 56.2156 183.43 57.2606L183.193 55.4881C191.163 54.4201 204.688 54.2312 214.171 66.7351L212.746 67.8155ZM184.827 62.5951C184.66 61.7528 184.293 60.7524 183.847 59.7094C183.399 58.6618 182.912 57.6588 182.497 56.743L184.126 56.0057C184.512 56.8578 185.037 57.9415 185.492 59.0068C185.949 60.0774 186.377 61.2175 186.581 62.2488L184.827 62.5951ZM182.497 56.743C179.058 49.1558 172.447 43.5365 164.189 42.0526L164.505 40.2933C173.401 41.8913 180.47 47.9389 184.126 56.0057L182.497 56.743ZM164.189 42.0526C159.074 41.1342 153.32 41.5167 148.261 42.5007C143.184 43.4873 138.924 45.0558 136.777 46.4235L135.816 44.9154C138.232 43.3771 142.74 41.7529 147.919 40.7459C153.115 39.735 159.104 39.323 164.505 40.2933L164.189 42.0526ZM138.911 50.8482C137.7 48.526 134.5 44.3408 129.792 40.9781C125.097 37.6253 118.977 35.1391 111.888 36.047L111.661 34.2739C119.323 33.2925 125.888 35.9926 130.832 39.5231C135.761 43.0438 139.151 47.441 140.497 50.0223L138.911 50.8482ZM111.888 36.047C97.7324 37.8602 90.9775 49.0298 88.9007 52.4751L87.3691 51.5521C89.4551 48.0911 96.5965 36.2031 111.661 34.2739L111.888 36.047ZM88.8691 52.5243L88.207 53.4748L86.7391 52.4534L87.4006 51.5029L88.8691 52.5243ZM94.5065 56.6413C92.5143 55.3956 88.0253 53.7792 82.8433 52.8287C77.6679 51.8788 71.9859 51.6275 67.5907 52.9651L67.0697 51.2549C71.8658 49.7954 77.8798 50.0997 83.1668 51.07C88.4472 52.0389 93.1882 53.7084 95.4554 55.126L94.5065 56.6413ZM67.5907 52.9651C61.805 54.7258 57.6592 56.867 54.5186 59.5323C51.384 62.193 49.2002 65.4185 47.3989 69.426L45.7676 68.6933C47.6483 64.5087 49.9745 61.0437 53.3611 58.1691C56.7418 55.3005 61.1292 53.0629 67.0697 51.2549L67.5907 52.9651ZM47.3989 69.426C45.7171 73.1685 46.0209 77.7873 47.0951 82.0893C48.1634 86.3684 49.9568 90.1876 51.0729 92.2238L49.5047 93.0832C48.3386 90.9558 46.4756 86.9916 45.3601 82.5223C44.2498 78.076 43.8417 72.9795 45.7676 68.6933L47.3989 69.426ZM56.0161 91.6026C55.119 91.8997 49.4548 93.2144 43.7583 96.8118C38.0803 100.398 32.5066 106.17 31.7178 115.329L29.9362 115.175C30.7899 105.264 36.8486 99.0599 42.8029 95.3004C48.7389 91.5521 54.7076 90.1528 55.4531 89.9055L56.0161 91.6026ZM31.7178 115.329C30.4376 130.187 38.0586 137.882 41.1683 140.567L39.999 141.919C36.659 139.035 28.5878 130.828 29.9362 115.175L31.7178 115.329ZM41.2425 140.638C42.7222 142.249 45.9402 144.297 49.7901 145.541C53.6315 146.784 57.9302 147.171 61.6049 145.682L62.2768 147.339C58.066 149.045 53.2988 148.555 49.2396 147.243C45.1882 145.933 41.6703 143.748 39.9249 141.848L41.2425 140.638ZM61.6049 145.682C69.3644 142.537 73.36 138.234 74.4499 135.794L76.0832 136.523C74.7393 139.53 70.2896 144.091 62.2768 147.339L61.6049 145.682ZM93.4888 156.482C97.3341 156.482 100.697 157.912 103.771 160.037C106.832 162.152 109.656 164.991 112.419 167.866L111.13 169.105C108.36 166.223 105.649 163.508 102.754 161.507C99.8729 159.516 96.8603 158.27 93.4888 158.27V156.482ZM112.419 167.866C126.208 182.212 145.017 178.919 155.141 170.084L156.317 171.431C145.632 180.756 125.716 184.281 111.13 169.105L112.419 167.866ZM155.141 170.084C163.168 163.079 162.614 154.246 161.165 146.678L162.921 146.342C164.393 154.03 165.112 163.754 156.317 171.431L155.141 170.084ZM112.373 169.15C108.892 172.285 103.528 177.654 96.6155 180.895C89.6395 184.166 81.063 185.287 71.1926 179.988L72.0391 178.413C81.3354 183.405 89.3088 182.346 95.8563 179.276C102.467 176.176 107.6 171.042 111.177 167.821L112.373 169.15ZM71.1926 179.988C63.6719 175.951 60.4303 169.784 59.4434 163.485C58.4637 157.23 59.7026 150.852 61.0845 146.253L62.7972 146.767C61.4507 151.25 60.2899 157.331 61.2105 163.208C62.1246 169.042 65.0854 174.68 72.0391 178.413L71.1926 179.988Z" fill="black"></path>
    <path d="M263.227 129.763L222.926 165.954L230.414 182.01L226.593 167.624L263.227 129.763Z" fill="#E4A400"></path>
    <path d="M231.071 181.096L228.609 168.386L238.127 171.456L231.071 181.096Z" fill="#FFB800"></path>
    <path d="M266.794 126.38L232.347 166.804L253.001 173.993C253.984 174.335 255.047 173.759 255.297 172.75L266.794 126.38Z" fill="#FED601"></path>
    <path d="M264.211 128.164L213.407 159.218C212.797 159.591 212.86 160.496 213.516 160.781L220.841 163.968L264.211 128.164Z" fill="#FED601"></path>
    <path d="M267.011 125.979L267.743 126.21C267.839 125.907 267.738 125.577 267.489 125.379C267.241 125.181 266.896 125.157 266.622 125.318L267.011 125.979ZM226.842 167.798L226.289 167.266C226.102 167.461 226.031 167.739 226.102 167.999L226.842 167.798ZM230.685 181.938L230.06 182.385C230.205 182.587 230.438 182.706 230.686 182.706C230.933 182.705 231.166 182.586 231.31 182.385L230.685 181.938ZM208.9 160.135L208.511 159.473L208.9 160.135ZM251.798 174.106L251.066 173.874L251.798 174.106ZM249.563 175.252L249.802 174.522L249.563 175.252ZM266.458 125.447L226.289 167.266L227.396 168.33L267.565 126.511L266.458 125.447ZM226.102 167.999L229.944 182.139L231.426 181.737L227.583 167.597L226.102 167.999ZM231.31 181.492L219.939 165.6L218.691 166.493L230.06 182.385L231.31 181.492ZM219.809 166.634L267.505 126.567L266.517 125.392L218.821 165.459L219.809 166.634ZM252.53 174.337L267.743 126.21L266.279 125.748L251.066 173.874L252.53 174.337ZM219.514 165.305L209.536 162.621L209.138 164.104L219.115 166.788L219.514 165.305ZM209.289 160.796L267.4 126.641L266.622 125.318L208.511 159.473L209.289 160.796ZM226.603 168.527L237.898 172.232L238.376 170.774L227.082 167.069L226.603 168.527ZM237.898 172.232L249.323 175.981L249.802 174.522L238.376 170.774L237.898 172.232ZM231.31 182.385L238.762 171.95L237.513 171.057L230.06 181.492L231.31 182.385ZM209.536 162.621C208.681 162.392 208.526 161.245 209.289 160.796L208.511 159.473C206.575 160.611 206.968 163.52 209.138 164.104L209.536 162.621ZM251.066 173.874C250.899 174.404 250.33 174.696 249.802 174.522L249.323 175.981C250.664 176.42 252.105 175.682 252.53 174.337L251.066 173.874Z" fill="black"></path>
    <path d="M220.049 190.44C220.553 190.016 221.305 190.081 221.729 190.585C222.153 191.089 222.088 191.841 221.584 192.264L220.049 190.44ZM153.583 30.862C154.064 31.3107 154.09 32.0651 153.641 32.5466C153.192 33.0281 152.438 33.0543 151.956 32.6049L153.583 30.862ZM150.251 31.0345C149.764 30.5917 149.729 29.838 150.172 29.3512C150.615 28.8638 151.369 28.8284 151.856 29.2718L150.251 31.0345ZM144.769 23.1481C145.278 23.5653 145.353 24.3164 144.936 24.8255C144.519 25.3352 143.767 25.41 143.258 24.9928L144.769 23.1481ZM139.643 22.1195C139.121 21.7174 139.025 20.9689 139.427 20.4474C139.829 19.9265 140.578 19.8301 141.1 20.2322L139.643 22.1195ZM133.495 14.7376C134.041 15.105 134.185 15.8456 133.818 16.392C133.45 16.9378 132.709 17.0821 132.163 16.7148L133.495 14.7376ZM128.299 14.2128C127.739 13.8651 127.568 13.1304 127.915 12.5709C128.263 12.0119 128.998 11.8407 129.557 12.1877L128.299 14.2128ZM121.366 7.55708C121.953 7.85556 122.188 8.57322 121.889 9.15968C121.591 9.74679 120.873 9.98098 120.286 9.6825L121.366 7.55708ZM116.147 7.70861C115.545 7.44097 115.274 6.73643 115.542 6.13488C115.809 5.53399 116.514 5.26306 117.116 5.53071L116.147 7.70861ZM108.257 2.21728C108.888 2.40555 109.246 3.07007 109.057 3.70048C108.868 4.33155 108.203 4.68972 107.573 4.5008L108.257 2.21728ZM103.161 3.36724C102.517 3.23079 102.106 2.59776 102.243 1.95357C102.38 1.31004 103.014 0.898728 103.657 1.03583L103.161 3.36724ZM94.1713 1.51037e-05C94.8301 -0.00326487 95.3662 0.528091 95.3702 1.18605C95.3734 1.84467 94.8419 2.38062 94.1838 2.3839L94.1713 1.51037e-05ZM89.719 2.71256C89.0674 2.80899 88.4617 2.35832 88.3653 1.70691C88.2695 1.05617 88.7203 0.450028 89.3712 0.354253L89.719 2.71256ZM80.1733 3.35149C80.7527 3.03793 81.4759 3.25375 81.7889 3.83299C82.1026 4.41158 81.8867 5.13514 81.3073 5.44805L80.1733 3.35149ZM77.6673 7.88245C77.1568 8.29835 76.4055 8.2216 75.9901 7.71124C75.5741 7.20087 75.6508 6.45042 76.1613 6.03451L77.6673 7.88245ZM69.98 13.2255C70.3206 12.662 71.0535 12.4816 71.6172 12.8221C72.1809 13.1626 72.3613 13.8953 72.0208 14.4581L69.98 13.2255ZM70.0273 18.3666C69.7681 18.9721 69.0679 19.2528 68.4622 18.9944C67.8566 18.7359 67.5757 18.0353 67.8342 17.4298L70.0273 18.3666ZM65.1543 26.3933C65.2784 25.7465 65.9037 25.3234 66.5501 25.4474C67.1964 25.572 67.6203 26.1965 67.4956 26.8433L65.1543 26.3933ZM66.8362 31.2706C66.7653 31.9253 66.1767 32.3983 65.5225 32.3268C64.8676 32.256 64.3945 31.6675 64.466 31.0135L66.8362 31.2706ZM64.0854 40.2565C64.0723 39.5985 64.5953 39.0547 65.2534 39.0416C65.9122 39.0285 66.4562 39.5519 66.4694 40.2099L64.0854 40.2565ZM66.6761 44.7054C66.7233 45.3621 66.2285 45.9321 65.5717 45.9794C64.9148 46.026 64.3446 45.5313 64.2974 44.8753L66.6761 44.7054ZM65.3656 54.0416C65.2626 53.3915 65.7062 52.7807 66.3565 52.6777C67.0068 52.5747 67.6177 53.0175 67.7207 53.6676L65.3656 54.0416ZM68.5134 58.1166C68.6407 58.7628 68.2201 59.3892 67.5737 59.5165C66.928 59.6438 66.3007 59.2233 66.1734 58.5771L68.5134 58.1166ZM68.2489 67.5373C68.0803 66.901 68.4596 66.2483 69.0961 66.0797C69.7326 65.9111 70.3849 66.2903 70.5535 66.9266L68.2489 67.5373ZM71.776 71.2831C71.963 71.9141 71.6028 72.5774 70.9709 72.7643C70.3396 72.9506 69.6762 72.5905 69.4898 71.9594L71.776 71.2831ZM72.3285 80.6874C72.1087 80.0668 72.4342 79.3859 73.0549 79.1662C73.6757 78.9471 74.3568 79.2718 74.5766 79.8924L72.3285 80.6874ZM76.1397 84.1445C76.374 84.7598 76.0649 85.4486 75.45 85.6828C74.8345 85.9177 74.1455 85.6087 73.9113 84.9934L76.1397 84.1445ZM77.374 93.4905C77.1122 92.8863 77.3898 92.1851 77.9941 91.9227C78.5978 91.6609 79.2999 91.9384 79.5618 92.5426L77.374 93.4905ZM81.4122 96.6871C81.6872 97.2854 81.4247 97.9932 80.8262 98.2674C80.2278 98.5423 79.5198 98.2799 79.2455 97.6816L81.4122 96.6871ZM83.2417 105.937C82.9431 105.351 83.1767 104.633 83.7634 104.334C84.3507 104.036 85.0679 104.269 85.3671 104.856L83.2417 105.937ZM87.4624 108.876C87.7721 109.457 87.5529 110.178 86.9715 110.489C86.3908 110.798 85.6683 110.578 85.3586 109.998L87.4624 108.876ZM89.8266 118.002C89.4952 117.434 89.6875 116.704 90.2564 116.373C90.8254 116.041 91.555 116.234 91.8871 116.803L89.8266 118.002ZM94.2113 120.708C94.5532 121.27 94.374 122.003 93.8117 122.345C93.2487 122.687 92.515 122.508 92.1732 121.946L94.2113 120.708ZM97.069 129.685C96.7068 129.135 96.8597 128.396 97.4103 128.034C97.9602 127.672 98.6997 127.825 99.0612 128.375L97.069 129.685ZM101.61 132.178C101.981 132.722 101.84 133.464 101.296 133.834C100.752 134.205 100.011 134.065 99.64 133.521L101.61 132.178ZM104.979 141.082C104.59 140.551 104.707 139.805 105.238 139.417C105.77 139.028 106.516 139.144 106.904 139.676L104.979 141.082ZM109.646 143.361C110.044 143.886 109.94 144.633 109.415 145.031C108.89 145.428 108.142 145.325 107.745 144.8L109.646 143.361ZM113.467 152.086C113.051 151.576 113.127 150.825 113.638 150.409C114.148 149.993 114.9 150.071 115.316 150.581L113.467 152.086ZM118.244 154.108C118.669 154.611 118.606 155.363 118.103 155.788C117.601 156.213 116.848 156.15 116.423 155.648L118.244 154.108ZM122.549 162.608C122.104 162.123 122.137 161.369 122.623 160.924C123.108 160.479 123.862 160.512 124.307 160.998L122.549 162.608ZM127.442 164.346C127.898 164.822 127.881 165.576 127.405 166.032C126.929 166.486 126.175 166.47 125.719 165.994L127.442 164.346ZM132.28 172.548C131.804 172.094 131.786 171.339 132.24 170.863C132.695 170.386 133.449 170.368 133.926 170.822L132.28 172.548ZM137.278 173.936C137.766 174.379 137.804 175.132 137.361 175.62C136.919 176.108 136.165 176.145 135.678 175.703L137.278 173.936ZM142.732 181.745C142.221 181.332 142.14 180.582 142.555 180.069C142.968 179.558 143.719 179.478 144.231 179.892L142.732 181.745ZM147.836 182.71C148.361 183.107 148.465 183.854 148.067 184.38C147.67 184.905 146.922 185.008 146.397 184.611L147.836 182.71ZM154.015 189.963C153.462 189.605 153.305 188.867 153.663 188.315C154.022 187.762 154.76 187.605 155.312 187.963L154.015 189.963ZM159.19 190.366C159.757 190.7 159.944 191.431 159.61 191.998C159.274 192.565 158.543 192.753 157.976 192.418L159.19 190.366ZM166.227 196.784C165.63 196.505 165.372 195.796 165.65 195.199C165.929 194.603 166.638 194.345 167.235 194.623L166.227 196.784ZM171.402 196.426C172.014 196.67 172.312 197.363 172.069 197.975C171.825 198.586 171.131 198.885 170.52 198.641L171.402 196.426ZM179.432 201.534C178.793 201.375 178.404 200.728 178.563 200.089C178.721 199.451 179.368 199.061 180.007 199.22L179.432 201.534ZM184.426 200.135C185.076 200.242 185.516 200.855 185.409 201.505C185.302 202.154 184.688 202.594 184.039 202.487L184.426 200.135ZM193.449 203.173C192.791 203.189 192.245 202.667 192.23 202.009C192.215 201.351 192.736 200.805 193.394 200.79L193.449 203.173ZM197.865 200.454C198.517 200.371 199.115 200.832 199.199 201.485C199.283 202.138 198.821 202.735 198.168 202.819L197.865 200.454ZM207.369 200.596C206.749 200.82 206.066 200.5 205.842 199.881C205.618 199.262 205.938 198.579 206.557 198.355L207.369 200.596ZM210.674 196.604C211.265 196.315 211.979 196.559 212.269 197.15C212.559 197.741 212.315 198.455 211.723 198.745L210.674 196.604ZM219.728 193.755C219.206 194.156 218.457 194.057 218.056 193.535C217.656 193.012 217.755 192.264 218.277 191.864L219.728 193.755ZM151.956 32.6049C151.388 32.0756 150.82 31.5521 150.251 31.0345L151.856 29.2718C152.432 29.7953 153.008 30.3254 153.583 30.862L151.956 32.6049ZM143.258 24.9928C142.051 24.0055 140.846 23.0477 139.643 22.1195L141.1 20.2322C142.322 21.1749 143.545 22.1471 144.769 23.1481L143.258 24.9928ZM132.163 16.7148C130.869 15.8436 129.58 15.0092 128.299 14.2128L129.557 12.1877C130.864 13.0005 132.177 13.8507 133.495 14.7376L132.163 16.7148ZM120.286 9.6825C118.893 8.97534 117.513 8.31672 116.147 7.70861L117.116 5.53071C118.521 6.15653 119.939 6.8322 121.366 7.55708L120.286 9.6825ZM107.573 4.5008C106.077 4.05275 104.605 3.6749 103.161 3.36724L103.657 1.03583C105.168 1.35727 106.702 1.75152 108.257 2.21728L107.573 4.5008ZM94.1838 2.3839C92.647 2.39177 91.1574 2.50132 89.719 2.71256L89.3712 0.354253C90.9277 0.12531 92.5295 0.00854304 94.1713 1.51037e-05L94.1838 2.3839ZM81.3073 5.44805C80.6596 5.79836 80.0277 6.17949 79.4128 6.59145L78.0847 4.61166C78.7632 4.15706 79.4594 3.73722 80.1733 3.35149L81.3073 5.44805ZM79.4128 6.59145C78.8091 6.9962 78.2271 7.42654 77.6673 7.88245L76.1613 6.03451C76.7782 5.53202 77.4193 5.05708 78.0847 4.61166L79.4128 6.59145ZM72.0208 14.4581C71.2832 15.679 70.6185 16.9831 70.0273 18.3666L67.8342 17.4298C68.4668 15.9505 69.1814 14.5467 69.98 13.2255L72.0208 14.4581ZM67.4956 26.8433C67.222 28.2682 67.0022 29.7448 66.8362 31.2706L64.466 31.0135C64.6379 29.4273 64.8676 27.8857 65.1543 26.3933L67.4956 26.8433ZM66.4694 40.2099C66.4982 41.6774 66.5671 43.1763 66.6761 44.7054L64.2974 44.8753C64.1858 43.3068 64.1149 41.7666 64.0854 40.2565L66.4694 40.2099ZM67.7207 53.6676C67.953 55.1312 68.2175 56.6144 68.5134 58.1166L66.1734 58.5771C65.8722 57.0473 65.6032 55.5346 65.3656 54.0416L67.7207 53.6676ZM70.5535 66.9266C70.9348 68.3659 71.3423 69.8182 71.776 71.2831L69.4898 71.9594C69.0495 70.4736 68.6361 68.9989 68.2489 67.5373L70.5535 66.9266ZM74.5766 79.8924C75.0747 81.3014 75.5964 82.719 76.1397 84.1445L73.9113 84.9934C73.3614 83.5508 72.8331 82.1149 72.3285 80.6874L74.5766 79.8924ZM79.5618 92.5426C80.1589 93.9188 80.7757 95.301 81.4122 96.6871L79.2455 97.6816C78.6017 96.2804 77.9784 94.8832 77.374 93.4905L79.5618 92.5426ZM85.3671 104.856C86.0476 106.194 86.7465 107.534 87.4624 108.876L85.3586 109.998C84.6355 108.643 83.9294 107.289 83.2417 105.937L85.3671 104.856ZM91.8871 116.803C92.6456 118.104 93.4206 119.406 94.2113 120.708L92.1732 121.946C91.3746 120.631 90.5924 119.317 89.8266 118.002L91.8871 116.803ZM99.0612 128.375C99.4779 129.008 99.8979 129.641 100.322 130.273L98.3408 131.601C97.9129 130.962 97.489 130.324 97.069 129.685L99.0612 128.375ZM100.322 130.273C100.749 130.91 101.178 131.545 101.61 132.178L99.64 133.521C99.205 132.883 98.7719 132.243 98.3408 131.601L100.322 130.273ZM106.904 139.676C107.811 140.916 108.725 142.144 109.646 143.361L107.745 144.8C106.816 143.572 105.894 142.333 104.979 141.082L106.904 139.676ZM115.316 150.581C116.285 151.771 117.262 152.947 118.244 154.108L116.423 155.648C115.431 154.475 114.445 153.288 113.467 152.086L115.316 150.581ZM124.307 160.998C125.347 162.132 126.392 163.248 127.442 164.346L125.719 165.994C124.657 164.884 123.6 163.755 122.549 162.608L124.307 160.998ZM133.926 170.822C135.039 171.883 136.157 172.921 137.278 173.936L135.678 175.703C134.54 174.674 133.408 173.622 132.28 172.548L133.926 170.822ZM144.231 179.892C145.43 180.86 146.632 181.799 147.836 182.71L146.397 184.611C145.173 183.685 143.951 182.729 142.732 181.745L144.231 179.892ZM155.312 187.963C156.604 188.801 157.898 189.602 159.19 190.366L157.976 192.418C156.655 191.637 155.334 190.818 154.015 189.963L155.312 187.963ZM167.235 194.623C168.627 195.272 170.017 195.874 171.402 196.426L170.52 198.641C169.09 198.071 167.659 197.451 166.227 196.784L167.235 194.623ZM180.007 199.22C181.488 199.588 182.962 199.894 184.426 200.135L184.039 202.487C182.508 202.235 180.972 201.916 179.432 201.534L180.007 199.22ZM193.394 200.79C194.897 200.755 196.387 200.644 197.865 200.454L198.168 202.819C196.606 203.019 195.033 203.136 193.449 203.173L193.394 200.79ZM206.557 198.355C207.943 197.853 209.316 197.27 210.674 196.604L211.723 198.745C210.289 199.448 208.837 200.064 207.369 200.596L206.557 198.355ZM218.277 191.864C218.871 191.408 219.462 190.933 220.049 190.44L221.584 192.264C220.97 192.781 220.351 193.277 219.728 193.755L218.277 191.864Z" fill="black"></path>
    <path d="M185.264 47.0522C184.607 47.0902 184.043 46.5884 184.006 45.9311C183.968 45.2738 184.47 44.7103 185.127 44.6729L185.264 47.0522ZM38.6121 86.0701C39.1967 85.767 39.9159 85.9947 40.2198 86.5792C40.5229 87.163 40.2952 87.8826 39.7112 88.1857L38.6121 86.0701ZM37.7406 89.2202C37.1586 89.5292 36.4368 89.3081 36.1284 88.7269C35.8193 88.1457 36.0404 87.4241 36.6218 87.1151L37.7406 89.2202ZM28.7724 91.4939C29.3407 91.16 30.071 91.3496 30.405 91.9177C30.7384 92.4851 30.5487 93.2152 29.9811 93.5491L28.7724 91.4939ZM26.1863 95.8444C25.6279 96.1928 24.8923 96.0222 24.5439 95.464C24.1954 94.9051 24.3661 94.1697 24.9245 93.8213L26.1863 95.8444ZM17.4314 98.8299C17.9649 98.4448 18.7103 98.5649 19.0955 99.0988C19.4814 99.6328 19.3606 100.377 18.8271 100.763L17.4314 98.8299ZM15.3099 103.421C14.7942 103.831 14.0441 103.745 13.6346 103.229C13.2252 102.713 13.3111 101.964 13.8262 101.554L15.3099 103.421ZM7.08253 107.654C7.53465 107.175 8.28931 107.153 8.76833 107.604C9.24734 108.056 9.26965 108.81 8.81819 109.289L7.08253 107.654ZM6.04706 112.597C5.66057 113.13 4.91447 113.248 4.38231 112.861C3.84947 112.474 3.73135 111.729 4.11784 111.196L6.04706 112.597ZM0.643951 120.062C0.643951 119.405 1.17744 118.871 1.83626 118.871C2.49443 118.871 3.02855 119.405 3.02789 120.063L0.643951 120.062ZM4.12573 123.703C4.48993 124.252 4.33897 124.992 3.79039 125.355C3.24115 125.718 2.50166 125.568 2.13812 125.019L4.12573 123.703ZM10.269 130.666C9.65155 130.438 9.33461 129.754 9.56166 129.136C9.78935 128.518 10.4744 128.201 11.0926 128.428L10.269 130.666ZM15.4202 129.694C16.0619 129.843 16.4615 130.483 16.3132 131.124C16.1649 131.765 15.5245 132.165 14.8834 132.017L15.4202 129.694ZM24.2578 133.422C23.6016 133.366 23.1153 132.789 23.1718 132.133C23.2282 131.477 23.8063 130.991 24.4619 131.047L24.2578 133.422ZM29.0723 131.334C29.7305 131.361 30.2416 131.916 30.2154 132.574C30.1885 133.232 29.634 133.743 28.9758 133.716L29.0723 131.334ZM38.3634 133.766C37.7052 133.783 37.1573 133.263 37.1402 132.605C37.1232 131.947 37.6429 131.399 38.301 131.382L38.3634 133.766ZM42.9252 131.201C43.5827 131.167 44.1438 131.672 44.1779 132.33C44.212 132.987 43.7061 133.547 43.0486 133.581L42.9252 131.201ZM52.3955 132.888C51.7399 132.951 51.1579 132.469 51.0955 131.814C51.0338 131.159 51.5148 130.577 52.1704 130.515L52.3955 132.888ZM56.7841 130.035C57.4383 129.961 58.0289 130.431 58.103 131.085C58.1772 131.739 57.7067 132.33 57.0525 132.404L56.7841 130.035ZM66.3317 131.2C65.6801 131.294 65.0751 130.843 64.9799 130.192C64.8855 129.54 65.3369 128.935 65.9885 128.841L66.3317 131.2ZM70.578 128.139C71.2282 128.035 71.8398 128.477 71.9442 129.127C72.0479 129.777 71.6056 130.389 70.9553 130.493L70.578 128.139ZM80.1715 128.89C79.5245 129.011 78.9018 128.585 78.7804 127.938C78.659 127.291 79.0855 126.668 79.7332 126.547L80.1715 128.89ZM84.2983 125.663C84.944 125.535 85.572 125.953 85.7013 126.599C85.8306 127.244 85.4112 127.872 84.7655 128.001L84.2983 125.663ZM93.9083 126.064C93.2659 126.208 92.6281 125.804 92.4844 125.162C92.3407 124.519 92.7455 123.882 93.388 123.738L93.9083 126.064ZM97.9131 122.7C98.5542 122.549 99.1959 122.947 99.3469 123.587C99.4971 124.228 99.1001 124.87 98.459 125.02L97.9131 122.7ZM107.534 122.786C106.897 122.95 106.247 122.566 106.083 121.928C105.919 121.291 106.303 120.641 106.94 120.477L107.534 122.786ZM111.441 119.294C112.077 119.124 112.731 119.501 112.902 120.137C113.073 120.772 112.695 121.426 112.059 121.597L111.441 119.294ZM121.052 119.089C120.419 119.272 119.758 118.908 119.575 118.276C119.392 117.643 119.756 116.983 120.388 116.8L121.052 119.089ZM124.864 115.48C125.494 115.291 126.159 115.648 126.349 116.279C126.538 116.909 126.18 117.574 125.549 117.763L124.864 115.48ZM134.464 114.991C133.837 115.193 133.166 114.849 132.964 114.221C132.762 113.595 133.107 112.924 133.733 112.722L134.464 114.991ZM138.156 111.273C138.781 111.065 139.456 111.403 139.664 112.028C139.872 112.652 139.534 113.327 138.91 113.535L138.156 111.273ZM147.746 110.49C147.126 110.711 146.444 110.387 146.223 109.767C146.002 109.147 146.325 108.465 146.945 108.244L147.746 110.49ZM151.31 106.661C151.927 106.434 152.613 106.749 152.841 107.367C153.069 107.984 152.753 108.67 152.135 108.897L151.31 106.661ZM160.866 105.564C160.254 105.806 159.561 105.507 159.319 104.894C159.077 104.282 159.377 103.59 159.99 103.348L160.866 105.564ZM164.304 101.613C164.913 101.363 165.609 101.655 165.859 102.265C166.108 102.874 165.817 103.57 165.207 103.819L164.304 101.613ZM173.818 100.165C173.216 100.431 172.512 100.158 172.247 99.5548C171.982 98.9525 172.255 98.2487 172.858 97.9836L173.818 100.165ZM177.094 96.0832C177.693 95.8097 178.4 96.0727 178.674 96.6716C178.948 97.2706 178.685 97.9777 178.086 98.2513L177.094 96.0832ZM186.534 94.2287C185.944 94.5213 185.228 94.2806 184.936 93.6908C184.643 93.1017 184.884 92.386 185.473 92.0935L186.534 94.2287ZM189.61 89.9943C190.194 89.6905 190.914 89.9182 191.217 90.502C191.521 91.0865 191.293 91.8061 190.709 92.1092L189.61 89.9943ZM198.936 87.6215C198.365 87.9495 197.636 87.7527 197.308 87.182C196.98 86.6113 197.176 85.8825 197.747 85.5545L198.936 87.6215ZM201.73 83.1988C202.292 82.8564 203.026 83.0342 203.368 83.5957C203.711 84.1579 203.534 84.8913 202.971 85.2344L201.73 83.1988ZM210.83 80.1006C210.292 80.4797 209.548 80.3511 209.168 79.8132C208.789 79.2753 208.918 78.5314 209.456 78.1522L210.83 80.1006ZM213.172 75.4102C213.693 75.0068 214.442 75.1019 214.845 75.6221C215.249 76.1423 215.154 76.8908 214.633 77.2942L213.172 75.4102ZM221.744 71.0281C221.286 71.5005 220.531 71.5123 220.059 71.0537C219.586 70.5958 219.574 69.8408 220.033 69.3685L221.744 71.0281ZM222.981 65.9573C223.376 65.4312 224.124 65.3256 224.65 65.7211C225.177 66.1167 225.283 66.8645 224.887 67.3906L222.981 65.9573ZM228.651 58.2362C228.644 58.8948 228.104 59.4223 227.446 59.4144C226.788 59.4072 226.26 58.8673 226.267 58.2093L228.651 58.2362ZM225.076 54.3508C224.7 53.8102 224.833 53.0676 225.374 52.6918C225.914 52.3159 226.657 52.449 227.033 52.9896L225.076 54.3508ZM218.079 47.1958C218.704 47.4031 219.042 48.0781 218.834 48.7026C218.627 49.3272 217.952 49.665 217.327 49.4577L218.079 47.1958ZM212.59 48.2198C211.945 48.0893 211.527 47.4602 211.659 46.8147C211.789 46.1699 212.418 45.7526 213.064 45.8838L212.59 48.2198ZM202.909 44.6106C203.566 44.6532 204.064 45.2193 204.022 45.8766C203.98 46.5333 203.414 47.0318 202.757 46.9898L202.909 44.6106ZM197.77 46.7839C197.112 46.7707 196.589 46.2263 196.603 45.5683C196.616 44.9097 197.161 44.3875 197.819 44.4006L197.77 46.7839ZM187.664 44.543C188.321 44.5135 188.878 45.0232 188.908 45.6805C188.937 46.3384 188.427 46.8954 187.769 46.9242L187.664 44.543ZM39.7112 88.1857C39.0465 88.5308 38.3896 88.8758 37.7406 89.2202L36.6218 87.1151C37.278 86.7668 37.9414 86.4184 38.6121 86.0701L39.7112 88.1857ZM29.9811 93.5491C28.6753 94.3166 27.4095 95.0815 26.1863 95.8444L24.9245 93.8213C26.1667 93.0473 27.4495 92.2712 28.7724 91.4939L29.9811 93.5491ZM18.8271 100.763C17.5876 101.657 16.4143 102.543 15.3099 103.421L13.8262 101.554C14.9621 100.652 16.1649 99.7437 17.4314 98.8299L18.8271 100.763ZM8.81819 109.289C7.74991 110.423 6.82465 111.527 6.04706 112.597L4.11784 111.196C4.96434 110.032 5.95651 108.85 7.08253 107.654L8.81819 109.289ZM3.02789 120.063C3.02789 120.711 3.11586 121.332 3.29172 121.927L1.0042 122.602C0.761414 121.778 0.643295 120.93 0.643951 120.062L3.02789 120.063ZM3.29172 121.927C3.47479 122.547 3.75237 123.138 4.12573 123.703L2.13812 125.019C1.63876 124.266 1.25749 123.459 1.0042 122.602L3.29172 121.927ZM11.0926 128.428C12.3892 128.905 13.8335 129.328 15.4202 129.694L14.8834 132.017C13.216 131.632 11.674 131.182 10.269 130.666L11.0926 128.428ZM24.4619 131.047C25.935 131.174 27.4725 131.27 29.0723 131.334L28.9758 133.716C27.3432 133.651 25.769 133.552 24.2578 133.422L24.4619 131.047ZM38.301 131.382C39.805 131.343 41.3471 131.283 42.9252 131.201L43.0486 133.581C41.4514 133.665 39.889 133.726 38.3634 133.766L38.301 131.382ZM52.1704 130.515C53.6829 130.371 55.2217 130.211 56.7841 130.035L57.0525 132.404C55.4756 132.582 53.9231 132.744 52.3955 132.888L52.1704 130.515ZM65.9885 128.841C67.5004 128.621 69.0307 128.386 70.578 128.139L70.9553 130.493C69.3968 130.742 67.8554 130.978 66.3317 131.2L65.9885 128.841ZM79.7332 126.547C81.2418 126.265 82.7642 125.97 84.2983 125.663L84.7655 128.001C83.2215 128.31 81.69 128.606 80.1715 128.89L79.7332 126.547ZM93.388 123.738C94.8867 123.403 96.3953 123.057 97.9131 122.7L98.459 125.02C96.9327 125.379 95.4156 125.728 93.9083 126.064L93.388 123.738ZM106.94 120.477C108.434 120.093 109.934 119.698 111.441 119.294L112.059 121.597C110.544 122.003 109.036 122.399 107.534 122.786L106.94 120.477ZM120.388 116.8C121.134 116.584 121.88 116.365 122.627 116.145L123.302 118.432C122.551 118.653 121.801 118.873 121.052 119.089L120.388 116.8ZM122.627 116.145C123.375 115.924 124.121 115.703 124.864 115.48L125.549 117.763C124.803 117.987 124.053 118.21 123.302 118.432L122.627 116.145ZM133.733 112.722C135.218 112.244 136.693 111.761 138.156 111.273L138.91 113.535C137.439 114.025 135.957 114.511 134.464 114.991L133.733 112.722ZM146.945 108.244C148.414 107.721 149.869 107.193 151.31 106.661L152.135 108.897C150.686 109.432 149.223 109.963 147.746 110.49L146.945 108.244ZM159.99 103.348C161.445 102.772 162.883 102.194 164.304 101.613L165.207 103.819C163.777 104.404 162.33 104.986 160.866 105.564L159.99 103.348ZM172.858 97.9836C174.292 97.3526 175.704 96.7189 177.094 96.0832L178.086 98.2513C176.686 98.8915 175.263 99.5298 173.818 100.165L172.858 97.9836ZM185.473 92.0935C186.882 91.3942 188.261 90.6942 189.61 89.9943L190.709 92.1092C189.347 92.8164 187.955 93.5229 186.534 94.2287L185.473 92.0935ZM197.747 85.5545C199.117 84.7673 200.446 83.9821 201.73 83.1988L202.971 85.2344C201.668 86.0281 200.323 86.8245 198.936 87.6215L197.747 85.5545ZM209.456 78.1522C210.764 77.2299 212.004 76.3155 213.172 75.4102L214.633 77.2942C213.434 78.2238 212.165 79.1592 210.83 80.1006L209.456 78.1522ZM220.033 69.3685C221.167 68.1995 222.151 67.0613 222.981 65.9573L224.887 67.3906C223.987 68.5859 222.936 69.8001 221.744 71.0281L220.033 69.3685ZM226.267 58.2093C226.275 57.5323 226.187 56.8855 226.004 56.265L228.292 55.5906C228.544 56.4486 228.662 57.3329 228.651 58.2362L226.267 58.2093ZM226.004 56.265C225.807 55.5945 225.498 54.9569 225.076 54.3508L227.033 52.9896C227.594 53.7945 228.018 54.6624 228.292 55.5906L226.004 56.265ZM217.327 49.4577C215.904 48.9841 214.323 48.5715 212.59 48.2198L213.064 45.8838C214.875 46.2505 216.551 46.6874 218.079 47.1958L217.327 49.4577ZM202.757 46.9898C201.161 46.8875 199.499 46.8186 197.77 46.7839L197.819 44.4006C199.579 44.4361 201.277 44.5062 202.909 44.6106L202.757 46.9898ZM187.769 46.9242C186.944 46.961 186.11 47.0036 185.264 47.0522L185.127 44.6729C185.982 44.623 186.828 44.5804 187.664 44.543L187.769 46.9242Z" fill="black"></path>
    <path d="M322.899 88.6829C322.414 89.1034 321.928 89.4268 321.561 89.8572C320.849 90.6896 320.948 91.5116 321.809 92.2259C323.573 93.7046 325.266 95.2219 326.802 96.9347C327.495 97.7081 328.387 98.2952 329.219 98.9414C330.457 99.9004 331.715 100.84 332.973 101.78C333.231 101.976 333.498 102.211 333.805 102.299C335.697 102.867 337.559 103.649 339.501 103.885C343.969 104.423 348.179 103.405 351.844 100.791C353.973 99.274 355.905 97.4923 357.619 95.4954C360.214 92.4706 362.928 89.5344 366.058 87.0285C367.633 85.7657 369.386 84.6689 371.18 83.7295C372.646 82.9659 374.31 82.7895 375.974 83.2788C377.875 83.8469 379.629 84.7476 381.392 85.6286C381.967 85.9127 382.472 86.3725 382.967 86.7937C384.067 87.7232 385.147 88.6632 386.216 89.6223C387.88 91.1101 389.366 92.7252 390.297 94.7811C390.427 95.0749 390.635 95.3295 390.773 95.5545C391.576 95.7992 392.179 95.5151 392.655 95.0454C393.11 94.5947 393.507 94.0568 393.824 93.4986C393.953 93.2637 393.873 92.8524 393.774 92.5494C393.289 91.032 392.417 89.72 391.04 88.9079C389.733 88.1443 388.732 87.0187 387.504 86.1672C385.949 85.0999 384.552 83.7977 383.086 82.6136C382.937 82.4962 382.759 82.4077 382.581 82.3198C381.046 81.6251 379.52 80.8904 377.955 80.2639C376.598 79.726 375.161 79.7843 373.705 79.7647C372.388 79.7456 371.209 80.0002 370.1 80.5774C368.891 81.2138 367.762 81.9872 366.603 82.7114C366.435 82.8091 366.336 83.0341 366.167 83.0932C364.394 83.7197 363.076 85.0218 361.759 86.2354C360.531 87.3709 359.253 88.4671 358.233 89.8473C357.123 91.345 355.815 92.7252 354.577 94.1251C353.617 95.212 352.606 96.4158 351.12 96.9642C350.952 97.0324 350.803 97.1991 350.675 97.346C349.645 98.5104 348.208 98.9906 346.832 99.5777C346.237 99.8322 345.633 100.077 345.009 100.272C344.573 100.409 344.117 100.469 343.661 100.527C343.206 100.586 342.74 100.547 342.285 100.635C340.194 101.016 338.263 100.576 336.43 99.5875C335.162 98.902 333.864 98.2755 332.597 97.5907C331.675 97.0915 330.715 96.6211 330.15 95.6719C328.674 94.7811 327.98 93.0584 326.446 92.2259C326.287 92.138 326.129 91.9616 326.089 91.7956C325.801 90.6699 324.969 90.1117 323.989 89.642C323.573 89.4852 323.305 89.0739 322.899 88.6829Z" fill="black"></path>
    <path d="M286.99 191.707C286.443 191.931 285.984 192.246 285.495 192.307C284.077 192.479 282.66 192.551 281.233 192.652C281.056 192.662 280.822 192.622 280.705 192.51C279.962 191.778 278.945 192.266 278.094 191.667C277.821 192.52 277.518 193.202 277.391 193.923C277.263 194.574 277.606 195.184 278.369 195.428C280.363 196.058 282.357 195.834 284.351 195.58C285.192 195.469 286.013 195.286 286.854 195.194C287.157 195.164 287.469 195.265 287.782 195.316C288.076 196.638 288.193 197.939 288.672 199.088C289.151 200.246 288.828 201.619 289.796 202.696C290.774 202.524 291.908 202.574 292.67 201.365C292.465 200.206 291.898 199.128 291.566 197.99C291.243 196.892 290.637 195.753 291.018 194.432C293.941 194.096 296.668 192.836 299.552 193.019C300.071 192.622 300.051 192.154 299.973 191.676C299.914 191.341 299.846 191.016 299.738 190.69C299.152 188.921 297.959 188.332 296.249 189.013C295.29 189.399 294.42 189.979 293.433 190.314C292.494 190.629 291.556 190.629 290.451 190.944C290.539 187.895 290.139 185.078 291.067 182.273C289.816 181.348 288.496 181.632 287.333 182.171C286.551 182.537 286.335 183.554 286.453 184.469C286.531 185.058 286.834 185.627 286.883 186.217C287.039 188.027 287.039 189.836 286.99 191.707Z" fill="black"></path>
    <path d="M491.396 82.6683C491.547 83.4608 491.778 84.0964 491.778 84.7222C491.758 86.2769 491.738 87.812 492.271 89.3083C492.291 89.3673 492.331 89.4552 492.311 89.4939C491.688 90.5212 492.351 91.4993 492.422 92.5456C493.548 92.7313 494.665 92.9071 495.63 91.9198C495.771 90.844 495.56 89.7681 495.309 88.6825C494.896 86.9028 494.765 85.0935 494.835 83.2646C494.835 83.1478 494.926 83.0304 495.017 82.8054C497.099 82.3751 501.264 82.7464 503.426 83.3532C503.577 82.9911 503.799 82.6585 503.839 82.3069C503.909 81.7296 503.89 81.1333 503.849 80.556C503.749 79.2945 501.771 78.6005 500.474 78.7861C499.689 78.9036 497.853 79.0308 497.079 79.1968C496.324 79.3529 495.65 79.099 494.906 79.0013C494.866 76.1064 494.695 73.3289 495.59 70.64C494.363 69.7498 493.126 70.024 491.909 70.415C491.637 70.5029 491.386 70.8158 491.235 71.09C490.652 72.1166 490.742 73.1728 491.044 74.2781C491.486 75.9207 491.426 77.583 491.124 79.2945C489.877 79.7052 488.67 79.2263 487.513 79.4316C486.397 79.6271 484.269 78.9036 483.113 79.4415C482.931 80.3408 482.63 81.2796 483.122 82.297C483.857 82.8153 484.752 82.6198 485.597 82.6001C486.733 82.5804 488.911 82.4925 490.048 82.4728C490.41 82.4827 490.803 82.5804 491.396 82.6683Z" fill="black"></path>
    <path d="M429.473 145.735C429.921 146.276 430.264 146.857 430.74 147.261C431.426 147.842 432.14 147.891 432.731 147.113C433.35 146.286 433.998 145.479 434.675 144.71C435.865 143.362 437.084 142.042 438.313 140.722C438.427 140.594 438.647 140.574 438.885 140.476C439.561 140.919 440.209 141.392 440.733 142.081C441.514 143.095 442.362 144.061 443.381 144.838C443.524 144.947 443.733 145.095 443.752 145.242C443.953 146.404 445.01 146.789 445.62 147.586C446.335 147.182 447.03 146.857 447.459 146.148C447.782 145.616 447.811 145.173 447.421 144.71C446.877 144.071 446.354 143.391 445.715 142.869C444.324 141.727 443.191 140.309 441.895 139.067C441.581 138.772 441.381 138.349 441.162 138.034C441.257 137.817 441.276 137.66 441.362 137.591C443.429 135.976 445.096 133.898 447.106 132.214C447.63 131.771 448.249 131.445 448.887 131.013C448.545 129.516 447.468 128.865 446.316 128.324C446.125 128.235 445.81 128.333 445.591 128.432C444.515 128.895 443.676 129.643 443.096 130.707C442.019 132.667 440.361 134.035 438.599 135.503C438.094 134.902 437.714 134.292 437.189 133.858C436.008 132.864 434.951 131.751 433.998 130.52C433.484 129.87 432.988 129.21 432.446 128.501C431.598 128.413 431.131 129.052 430.664 129.663C429.606 131.062 429.711 132.214 430.988 133.415C431.178 133.593 431.369 133.77 431.598 133.878C433.465 134.794 434.836 136.31 436.217 137.935C436.217 138.684 435.751 139.216 435.217 139.668C434.055 140.673 433.007 141.776 432.15 143.066C432.083 143.174 432.026 143.342 431.931 143.371C430.702 143.696 430.388 144.996 429.473 145.735Z" fill="black"></path>
</svg>