<svg class="u-icon" viewBox="0 0 43 43" fill="none" xmlns="http://www.w3.org/2000/svg">
    <path d="M41.1594 19.6895C41.1594 28.6956 26.1494 29.9821 16.7145 29.1244C12.2829 30.411 2.99099 31.0115 1.27556 23.1205C-0.439879 15.2295 6.27891 14.1144 9.85274 14.5433C10.2816 10.6836 9.85274 4.67956 19.2876 1.24869C26.8356 -1.49601 30.438 7.53855 31.2957 12.3989C32.5823 8.96805 41.1594 10.6835 41.1594 19.6895Z" fill="#FF6230"></path>
    <path fill-rule="evenodd" clip-rule="evenodd" d="M32.1304 12.9718C31.526 10.7192 30.4708 8.08473 28.8674 6.01151C27.8172 4.65364 26.4938 3.48768 24.8587 2.86613C23.2028 2.23664 21.3141 2.19941 19.2217 2.96027C14.3032 4.74882 11.8205 7.26821 10.5626 9.96366C9.56442 12.1026 9.37722 14.3169 9.23203 16.0343C9.22949 16.0643 9.22697 16.0942 9.22445 16.1239C7.41525 16.0612 5.14113 16.3655 3.32129 17.5186C2.20419 18.2265 1.25673 19.2575 0.726888 20.6969C0.200681 22.1264 0.116094 23.8768 0.574234 25.9843C1.04635 28.156 2.05481 29.7911 3.40598 30.9727C4.74615 32.1446 6.37491 32.8288 8.03888 33.1924C11.2579 33.8957 14.7644 33.4344 17.0858 32.7883C21.8435 33.2036 27.9899 33.0873 33.0131 31.7223C35.5567 31.0311 37.8907 29.9991 39.6047 28.4845C41.3482 26.944 42.4353 24.912 42.4353 22.3409C42.4353 17.4842 40.098 14.4388 37.4247 13.1332C36.1111 12.4917 34.7018 12.2667 33.4749 12.492C33.0011 12.5791 32.5425 12.7376 32.1304 12.9718ZM24.1481 4.73562C22.9789 4.29119 21.5868 4.22836 19.9052 4.83985C15.3889 6.48217 13.3686 8.68022 12.375 10.8094C11.5423 12.5937 11.3873 14.3749 11.239 16.0784C11.2029 16.4922 11.1673 16.9015 11.1225 17.3051C11.093 17.5702 10.9589 17.8126 10.7499 17.9783C10.5408 18.144 10.2743 18.2193 10.0094 18.1875C8.33938 17.9871 6.03161 18.1689 4.39177 19.208C3.59687 19.7117 2.96291 20.4121 2.60376 21.3878C2.24098 22.3733 2.12901 23.7214 2.52859 25.5594C2.91419 27.3332 3.71051 28.5821 4.72254 29.4671C5.74556 30.3617 7.03839 30.9266 8.46579 31.2385C11.3436 31.8672 14.5973 31.4293 16.7115 30.8155C16.8313 30.7807 16.9566 30.7686 17.0809 30.7799C21.7331 31.2028 27.7139 31.0898 32.4887 29.7922C34.877 29.1433 36.8852 28.2186 38.2804 26.9858C39.6462 25.7789 40.4353 24.2728 40.4353 22.3409C40.4353 18.1916 38.484 15.8763 36.5471 14.9303C35.5555 14.4461 34.5793 14.3226 33.8362 14.4591C33.0994 14.5945 32.675 14.9557 32.5079 15.4014C32.3496 15.8235 31.9285 16.0875 31.4796 16.0461C31.0308 16.0046 30.6651 15.668 30.5868 15.2241C30.1738 12.884 29.1019 9.58392 27.2853 7.23505C26.3841 6.06981 25.3381 5.18799 24.1481 4.73562Z" fill="black"></path>
    <path fill-rule="evenodd" clip-rule="evenodd" d="M20.9805 24.8291C21.4776 24.8291 21.8805 25.232 21.8805 25.7291C21.8805 26.3148 21.8845 26.9063 21.8884 27.5015C21.8984 29.0165 21.9086 30.5551 21.8547 32.0802C21.8413 32.4613 21.8292 32.8499 21.8169 33.2439C21.7492 35.4195 21.6762 37.7622 21.3399 39.9342C21.3098 40.1289 21.2642 40.338 21.2268 40.5089C21.2134 40.5703 21.2011 40.6268 21.191 40.6759C21.1467 40.8901 21.1234 41.0485 21.1234 41.1901C21.1234 41.6871 20.7205 42.0901 20.2234 42.0901C19.7263 42.0901 19.3234 41.6871 19.3234 41.1901C19.3234 40.8612 19.3772 40.5587 19.4282 40.3116C19.4473 40.2193 19.4649 40.1388 19.4811 40.0648C19.5133 39.9179 19.5398 39.7964 19.5611 39.6588C19.8789 37.606 19.9484 35.3924 20.0168 33.2129C20.0293 32.8126 20.0419 32.4135 20.0559 32.0167C20.1083 30.5317 20.0985 29.0519 20.0886 27.5516C20.0846 26.948 20.0805 26.3411 20.0805 25.7291C20.0805 25.232 20.4835 24.8291 20.9805 24.8291Z" fill="black"></path>
    <path fill-rule="evenodd" clip-rule="evenodd" d="M16.4807 35.6743C16.9253 35.452 17.4659 35.6322 17.6882 36.0768C18.4618 37.6241 18.8262 38.3511 19.5647 39.4588C19.5761 39.476 19.587 39.4936 19.5972 39.5115C19.7904 39.8496 20.0456 40.1928 20.3233 40.5443C20.3747 40.6094 20.4283 40.6764 20.4829 40.7445C20.5931 40.641 20.7109 40.5303 20.8328 40.4159C21.4118 39.8728 22.0911 39.2391 22.4659 38.9022C22.6885 38.7021 23.0087 38.2391 23.3789 37.6565C23.4351 37.568 23.4928 37.4766 23.5502 37.3854C23.6632 37.2061 23.7755 37.0277 23.8757 36.8746C24.0152 36.6615 24.1909 36.4024 24.3638 36.2294C24.7153 35.878 25.2851 35.878 25.6366 36.2294C25.9881 36.5809 25.9881 37.1507 25.6366 37.5022C25.6366 37.5022 25.6367 37.5021 25.6366 37.5022C25.6346 37.5044 25.6102 37.5311 25.5597 37.6001C25.5106 37.6672 25.4515 37.7538 25.3817 37.8605C25.2896 38.0012 25.1925 38.1554 25.0858 38.3248C25.0265 38.4191 24.9641 38.5181 24.898 38.622C24.5649 39.1462 24.112 39.8428 23.6693 40.2408C23.3113 40.5626 22.6464 41.1827 22.0643 41.7287C21.7747 42.0004 21.5079 42.2515 21.3135 42.4348L20.9977 42.7328C20.9977 42.7328 20.9974 42.7331 20.3791 42.0791L20.9977 42.7328C20.8077 42.9124 20.5487 43.0008 20.2887 42.9746C20.0286 42.9483 19.7927 42.8102 19.6425 42.5963C19.5152 42.4149 19.3595 42.2209 19.1722 41.9876C19.0911 41.8865 19.0041 41.7781 18.9109 41.6602C18.6277 41.3017 18.3103 40.8818 18.0503 40.4322C17.2571 39.2397 16.8489 38.4232 16.0882 36.9018L16.0782 36.8818C15.8559 36.4372 16.0361 35.8966 16.4807 35.6743Z" fill="black"></path>
</svg>