<svg width="63" height="52" viewBox="0 0 63 52" fill="none" xmlns="http://www.w3.org/2000/svg">
  <path fill-rule="evenodd" clip-rule="evenodd" d="M20.5805 34.6701C20.5632 34.8995 20.8057 36.0988 20.8057 36.3326C20.8057 41.3984 24.9108 45.5051 29.9746 45.5051C32.8026 45.5051 34.3592 43.406 36.041 41.3928C37.3339 44.8909 41.6701 48.2027 45.616 48.2027C50.6799 48.2027 53.91 44.7813 53.91 39.7153C53.91 38.7733 53.5678 37.188 53.304 36.3326C53.4384 36.3385 54.9862 36.3326 55.1219 36.3326C60.1858 36.3326 62.9998 32.0504 62.9998 26.9846C62.9998 22.5364 59.3223 19.3357 55.1219 18.4975C55.6948 17.3 56.3339 15.6698 56.3339 14.2539C56.3339 9.18813 53.3765 5.03826 48.3126 5.03826C46.839 5.03826 44.2359 6.1659 43.0021 6.7839C41.5391 3.66302 39.5807 0.72168 35.9072 0.72168C33.3692 0.72168 30.1185 2.0861 28.4584 3.75279C26.8624 2.40594 25.7543 1.26125 23.5029 1.26125C19.3509 1.26125 15.0433 4.20992 13.9146 7.99635C13.0593 7.60355 12.9079 7.19654 11.9049 7.19654C8.1815 7.19654 5.16298 10.2162 5.16298 13.9411C5.16298 15.6807 5.82148 17.2664 6.9024 18.4625C4.51894 20.4915 3.00684 23.5143 3.00684 26.8904C3.00684 32.9992 7.95703 37.9515 14.0635 37.9515C16.6131 37.9515 18.7102 36.1206 20.5805 34.6701Z" fill="#FF6230"></path>
  <path d="M18.4292 38.2467C18.4472 38.0078 18.3228 37.7808 18.1118 37.6674C17.9008 37.554 17.6428 37.5755 17.4535 37.7223C15.6856 39.0933 13.4672 39.909 11.0567 39.909C5.28511 39.909 0.60599 35.2282 0.60599 29.4538C0.60599 26.2628 2.0344 23.4062 4.28838 21.4874C4.41312 21.3812 4.48956 21.229 4.50026 21.0655C4.51095 20.9021 4.45501 20.7412 4.34516 20.6197C3.36096 19.5306 2.76213 18.0883 2.76213 16.5046C2.76213 13.1142 5.50956 10.366 8.8981 10.366C9.81199 10.366 10.6776 10.5655 11.4552 10.9226C11.6148 10.9958 11.7983 10.9963 11.9582 10.9239C12.1181 10.8515 12.2387 10.7132 12.2889 10.545C13.3431 7.00819 16.6196 4.43072 20.4961 4.43072C22.5991 4.43072 24.5236 5.18848 26.0144 6.44657C26.2554 6.64994 26.612 6.63451 26.8346 6.41111C28.3857 4.85386 30.53 3.89115 32.9004 3.89115C36.33 3.89115 39.2904 5.9085 40.6574 8.82462C40.7268 8.97261 40.853 9.08631 41.0074 9.13989C41.1619 9.19348 41.3314 9.18242 41.4775 9.10921C42.6289 8.53246 43.9285 8.20772 45.3058 8.20772C50.0347 8.20772 53.8688 12.0429 53.8688 16.7742C53.8688 18.0977 53.5693 19.3494 53.0346 20.4669C52.9539 20.6357 52.9556 20.8323 53.0393 20.9996C53.123 21.1669 53.2793 21.2861 53.4627 21.3227C57.3851 22.1054 60.3409 25.5697 60.3409 29.7235C60.3409 34.4549 56.5069 38.29 51.7779 38.29C51.6506 38.29 51.5242 38.2874 51.399 38.2819C51.2021 38.2732 51.0133 38.3608 50.8928 38.5168C50.7723 38.6727 50.7352 38.8776 50.7933 39.0659C51.0395 39.8641 51.1722 40.7128 51.1722 41.5937C51.1722 46.3252 47.3381 50.1602 42.6092 50.1602C38.9251 50.1602 35.7827 47.8325 34.5749 44.5645C34.4999 44.3617 34.3226 44.2142 34.1096 44.1774C33.8965 44.1406 33.68 44.2202 33.5414 44.3861C31.9698 46.2674 29.6086 47.4625 26.9678 47.4625C22.2388 47.4625 18.4048 43.6274 18.4048 38.896C18.4048 38.6774 18.413 38.4608 18.4292 38.2467Z" stroke="black" stroke-width="1.21198" stroke-linejoin="round"></path>
  <path fill-rule="evenodd" clip-rule="evenodd" d="M18.7866 37.0383C18.7693 37.2677 19.0117 38.467 19.0117 38.7007C19.0117 43.7665 23.1168 47.8732 28.1807 47.8732C31.0087 47.8732 32.5652 45.7742 34.2471 43.7609C35.54 47.2591 39.8761 50.5709 43.8221 50.5709C48.8859 50.5709 52.116 47.1494 52.116 42.0834C52.116 41.1414 51.7739 39.5562 51.51 38.7007C51.6445 38.7066 53.1922 38.7007 53.328 38.7007C58.3918 38.7007 61.2059 34.4186 61.2059 29.3528C61.2059 24.9045 57.5284 21.7038 53.328 20.8657C53.9009 19.6682 54.54 18.038 54.54 16.6221C54.54 11.5563 51.5825 7.40642 46.5187 7.40642C45.0451 7.40642 42.442 8.53407 41.2082 9.15207C39.7451 6.03118 37.7868 3.08984 34.1133 3.08984C31.5752 3.08984 28.3246 4.45426 26.6645 6.12095C25.0685 4.77411 23.9604 3.62942 21.709 3.62942C17.557 3.62942 13.2494 6.57809 12.1207 10.3645C11.2653 9.97172 11.1139 9.56471 10.111 9.56471C6.38755 9.56471 3.36903 12.5844 3.36903 16.3092C3.36903 18.0489 4.02753 19.6345 5.10845 20.8307C2.725 22.8597 1.21289 25.8824 1.21289 29.2585C1.21289 35.3673 6.16309 40.3197 12.2695 40.3197C14.8192 40.3197 16.9162 38.4888 18.7866 37.0383Z" stroke="black" stroke-width="2.15129" stroke-linejoin="round"></path>
</svg>