<svg width="63" height="67" viewBox="0 0 63 67" fill="none" xmlns="http://www.w3.org/2000/svg">
    <path d="M12.6069 26.8664C12.5066 24.6748 14.1552 22.7952 16.3412 22.6089L28.6753 21.6223L29.3514 21.6146C33.3489 21.5689 36.6557 24.7147 36.8095 28.7095L37.3996 44.0363L38.3031 54.9277C38.642 59.0133 35.586 62.5921 31.4977 62.8973L21.335 63.656C17.6713 63.7106 14.5991 60.902 14.3259 57.2481L13.4788 45.9227L12.6069 26.8664Z" fill="#FF85B0"></path>
    <path d="M9.67425 28.465C9.57397 26.2734 11.2226 24.3938 13.4085 24.2075V24.2075L25.7427 23.2209L26.4188 23.2132C30.4163 23.1676 33.723 26.3133 33.8769 30.3081L34.467 45.6349L35.3705 56.5264C35.7094 60.6119 32.6533 64.1908 28.5651 64.4959L18.4023 65.2546V65.2546C14.7387 65.3092 11.6665 62.5006 11.3932 58.8467L10.5462 47.5213L9.67425 28.465Z" stroke="black" stroke-width="2"></path>
    <path d="M17.9746 25.6454L25.7269 25.0889" stroke="black" stroke-width="2" stroke-linecap="round" stroke-linejoin="round"></path>
    <path d="M15.7557 41.5868L16.0861 44.6074L18.8816 44.5145M24.8084 33.3856L28.356 33.1528L28.5488 35.7172" stroke="black" stroke-width="2"></path>
    <path d="M54.4482 9.1137C54.2337 8.68334 54.0198 8.27807 53.427 8.21705C53.1681 8.4948 52.9191 8.81355 52.6144 9.07617C51.8731 9.72989 51.1098 10.3541 50.3663 11.0006C49.8397 11.4599 49.3255 11.9311 48.9454 12.532C48.8108 12.7451 48.6329 12.9505 48.4299 13.0947C48.3556 13.1467 48.2844 13.2009 48.2157 13.2584C47.9465 13.4832 47.7218 13.7466 47.5218 14.0441C47.2745 14.4125 47.0185 14.7713 46.7243 15.1C46.5245 15.3247 46.3275 15.5522 46.1305 15.7796C45.4629 16.5514 44.7958 17.3221 44.0126 17.9846C43.6677 18.2746 43.3605 18.6151 43.0538 18.9545L42.8595 19.1687C42.6057 19.4488 42.5904 19.7483 42.7744 20.0786C42.8594 20.2315 42.9653 20.3556 43.0854 20.4582C43.2089 20.5637 43.3479 20.6475 43.4957 20.7169C43.5859 20.7595 43.6787 20.7964 43.7734 20.8308C44.275 20.2981 44.9799 19.9773 45.1877 19.1981C45.2112 19.1107 45.3449 19.0505 45.4338 18.988C45.7429 18.7707 46.0085 18.5078 46.2545 18.2268C46.4402 18.0148 46.6142 17.7924 46.7871 17.571C46.8791 17.4543 46.9705 17.3373 47.0631 17.2222C47.1342 17.1342 47.2059 17.0465 47.2784 16.9613C47.3715 16.8512 47.4648 16.7434 47.5608 16.6374C47.6683 16.5183 47.7776 16.4013 47.89 16.2865C47.9823 16.1912 48.0764 16.0982 48.1724 16.0053C48.3582 15.8345 48.5615 15.678 48.7373 15.4903C49.5638 14.6012 50.3443 13.6721 51.2057 12.8233C51.6864 12.3489 52.1883 11.8659 52.8658 11.6293C53.1181 11.5417 53.3506 11.4153 53.5667 11.2593C53.8156 11.08 54.0435 10.8615 54.2578 10.6174C54.6974 10.1177 54.7293 9.66711 54.4482 9.1137Z" fill="black"></path>
    <path d="M45.0818 30.3958C44.4169 29.6064 44.6067 28.8765 44.8073 28.1647C44.8534 28.0108 45.062 27.8678 45.2284 27.7891C45.4935 27.6682 45.7653 27.5697 46.0425 27.5054C46.4793 27.4038 46.9286 27.3864 47.3813 27.4978C48.2662 27.7083 49.1374 27.6154 50.0214 27.5216L50.0306 27.521C50.4431 27.4762 50.8551 27.4236 51.2665 27.3708L51.2907 27.3675C51.9221 27.2863 52.555 27.205 53.1889 27.1525C53.8037 27.1027 54.4206 27.0793 55.0416 27.1094C55.1388 27.1147 55.237 27.106 55.3355 27.0906C55.3977 27.081 55.4598 27.0686 55.5224 27.0551L55.6499 27.0263L55.7427 27.0055L55.8458 26.9833C56.4748 26.8659 57.103 26.7501 57.7375 26.6978C58.0274 26.6744 58.3184 26.6632 58.6115 26.6715C58.7275 26.6732 58.8923 26.7237 58.9541 26.6616C59.313 26.3341 59.7408 26.3171 60.1722 26.2996C60.4836 26.2876 60.7964 26.2755 61.0872 26.1466C61.1427 26.2075 61.1914 26.2714 61.2329 26.3374C61.3159 26.468 61.3737 26.607 61.416 26.7497C61.4623 26.9045 61.4908 27.0636 61.5155 27.2221C61.5746 27.5995 61.4833 27.8967 61.2544 28.0818C61.1225 28.1883 60.9447 28.2575 60.724 28.2829C60.582 28.3001 60.4394 28.3142 60.2965 28.3275C60.176 28.3383 60.0561 28.3479 59.9359 28.3566C59.4206 28.3949 58.9052 28.4201 58.3896 28.4768L57.6526 28.5605L57.3922 28.59L56.8636 28.6524C56.1314 28.7405 55.3995 28.8369 54.6731 28.951C54.4243 28.9894 54.1775 29.0445 53.9303 29.0987C53.3028 29.2381 52.6744 29.3779 52.0174 29.2492C52.0003 29.2461 51.9824 29.2447 51.964 29.2444L51.9364 29.246C51.9223 29.247 51.9084 29.2488 51.8939 29.2517C51.8759 29.255 51.8574 29.2594 51.8394 29.2655C51.8217 29.2711 51.8035 29.2777 51.7864 29.2849C51.4277 29.4138 51.0619 29.4941 50.6926 29.548C50.2747 29.6088 49.8528 29.6369 49.4295 29.665C49.1176 29.6857 48.8053 29.7069 48.4943 29.7405C48.3175 29.7601 48.1414 29.7841 47.9663 29.8148C47.3569 29.9227 46.7248 29.9329 46.0965 30.0575C45.9047 30.0963 45.7123 30.145 45.5218 30.2105C45.3744 30.2616 45.2278 30.3227 45.0818 30.3958Z" fill="black"></path>
    <path d="M18.955 14.7987C19.2165 14.8556 19.5031 14.7935 20.1358 14.6564L20.1399 14.6549C20.1079 14.1897 20.353 13.7152 20.2953 13.2388C20.2865 13.166 20.271 13.0928 20.2458 13.0199C20.2232 12.9531 20.1929 12.8867 20.153 12.8201C20.1191 12.7631 20.1162 12.6717 20.1287 12.5854C20.1351 12.5437 20.1448 12.5035 20.1558 12.4695C20.2219 12.2843 20.2475 12.1065 20.2487 11.9276C20.249 11.8872 20.2478 11.8468 20.2458 11.8053C20.2441 11.7646 20.2409 11.7226 20.2369 11.6809C20.2282 11.5916 20.2156 11.5005 20.2012 11.4072C20.0915 10.7067 19.9919 9.98326 20.0106 9.26816C20.0472 7.71442 19.7245 6.2447 19.3547 4.77997C19.1821 4.09075 19.0063 3.40693 19.0746 2.66669C19.097 2.42618 19.0901 2.16588 19.0172 1.94988C18.9939 1.8772 18.9692 1.80178 18.9428 1.72696C18.9075 1.62534 18.8689 1.52214 18.8256 1.42299C18.7322 1.20981 18.6164 1.01374 18.4591 0.878832C18.3545 0.788981 18.2317 0.72643 18.0849 0.703618C17.344 0.589763 16.5391 0.683315 15.9539 1.4742C16.1481 1.82838 16.3917 2.14431 16.5096 2.51046C16.7321 3.2105 16.9453 3.91444 17.1552 4.61958L17.4265 5.53269C17.5423 5.924 17.6581 6.31531 17.7748 6.70631L17.7868 6.74696C17.806 6.81223 17.8255 6.87972 17.813 6.94061C17.7687 7.16613 17.7694 7.38366 17.795 7.59628C17.8259 7.85533 17.8939 8.10689 17.9619 8.35845L18.0207 8.58099C18.0417 8.66155 18.0611 8.74271 18.0785 8.82365C18.3548 10.1165 18.4742 11.4175 18.2811 12.7562C18.2293 13.1267 18.215 13.5023 18.2017 13.8639C18.1951 14.0423 18.1881 14.2171 18.1774 14.3867C18.54 14.6225 18.7389 14.752 18.955 14.7987Z" fill="black"></path>
    <path d="M33.1604 1.41667C33.9828 1.07969 34.7301 1.49486 35.4623 1.9099C35.5848 1.97916 35.6666 2.16561 35.7114 2.31019C35.8989 2.8874 35.9317 3.46631 35.6298 3.96535C35.1906 4.68452 35.1023 5.49312 35.0154 6.31478C34.8843 7.5929 34.7503 8.86357 34.2826 10.0658C34.1122 10.5008 34.0475 10.9774 33.9828 11.4525C33.9609 11.6136 33.939 11.7746 33.9132 11.9337C33.897 12.0293 33.8836 12.1248 33.8665 12.2193C33.8481 12.3269 33.8252 12.4324 33.7899 12.5336C33.7484 12.6539 33.6887 12.7677 33.5963 12.8719C33.556 12.9158 33.5168 12.978 33.4954 13.0388C33.4786 13.0853 33.4735 13.1318 33.4871 13.1677C33.6535 13.6099 33.4877 13.9475 33.3228 14.2819C33.2321 14.4653 33.1428 14.6472 33.1078 14.8454C32.9799 14.8499 32.8563 14.8482 32.7353 14.8394C32.3659 14.8135 32.0254 14.7241 31.7064 14.5512C31.6407 14.5152 31.5751 14.4758 31.5114 14.4324C31.2382 14.2498 31.1114 14.0109 31.1936 13.7273C31.2278 13.6153 31.2577 13.5007 31.2876 13.386L31.331 13.2199C31.3937 12.9858 31.4655 12.7572 31.5836 12.5564C31.7946 12.1952 31.9148 11.8063 32.0147 11.4093C32.0395 11.3101 32.0634 11.2099 32.087 11.1102C32.1499 10.8445 32.2109 10.5786 32.2927 10.3197C32.3995 9.98022 32.4338 9.6119 32.468 9.24694C32.4763 9.15801 32.4846 9.06908 32.4941 8.98067C32.5131 8.80664 32.5194 8.63018 32.5255 8.4529L32.5256 8.44816C32.5427 7.98384 32.5595 7.5187 32.7987 7.10123C32.8493 7.00717 32.8591 6.8811 32.8416 6.76781C32.7636 6.07029 32.8664 5.39905 32.9701 4.72751C33.0615 4.13275 33.1529 3.53798 33.1197 2.92312C33.1082 2.43452 33.1527 1.94654 33.1604 1.41667Z" fill="black"></path>
    <path d="M11.6787 16.4243L11.8113 16.3429C11.5164 15.8326 11.5252 15.2853 10.9556 14.9567C10.8699 14.9059 10.7896 14.771 10.778 14.679C10.7334 14.2911 10.4395 13.9992 10.2256 13.6812C9.87797 13.1691 9.46723 12.6743 9.18149 12.1442C8.7385 11.3238 8.17728 10.5804 7.57111 9.84503C7.42421 9.66265 7.2669 9.48643 7.10958 9.31021C6.76529 8.92543 6.42014 8.53956 6.18474 8.09195C5.98733 7.72386 5.78965 7.35634 5.58242 6.99606C5.03177 6.03899 4.27037 5.77111 3.31373 6.18864C2.91166 6.3634 2.50035 6.54625 2.44281 7.0076C2.55962 7.12306 2.67165 7.23699 2.78194 7.34873C3.01463 7.5861 3.23842 7.81452 3.48262 8.02561C4.1059 8.56134 4.558 9.21415 5.06313 9.82971C5.35907 10.1913 5.67332 10.5402 6.05071 10.8448C6.11261 10.8935 6.15863 10.9616 6.20243 11.0301C6.22285 11.0616 6.24241 11.092 6.26306 11.1215C6.51141 11.4672 6.71983 11.8397 7.01641 12.1556C7.30728 12.4674 7.5786 12.7873 7.82952 13.1157C8.41073 13.8752 8.88284 14.6803 9.2384 15.544C9.34554 15.8076 9.49178 16.0639 9.63792 16.3071C9.73871 16.4763 9.83847 16.6388 9.92519 16.7939C10.6957 17.0303 11.1568 16.7462 11.6787 16.4243Z" fill="black"></path>
</svg>