<svg width="97" height="77" viewBox="0 0 97 77" fill="none" xmlns="http://www.w3.org/2000/svg">
  <path d="M92.0727 46.0169L26.6589 44.6178L30.1394 13.5536L92.0727 46.0169Z" fill="#FED601"></path>
  <path d="M70.6765 50.5916C71.6501 49.9204 72.6459 49.8327 73.7104 50.0363C74.1495 50.12 74.6212 50.0609 75.0731 50.0011C76.3232 49.8498 77.5624 49.6827 78.8237 49.9097C79.2087 49.9823 79.6148 49.9852 80.0102 49.9533C81.607 49.8217 83.2061 50.0834 84.7984 49.6485C85.3174 49.5074 85.9435 49.6278 86.4965 49.7369C87.5769 49.9497 88.6518 49.8778 89.7386 49.8734C90.596 49.8672 91.4503 49.9898 92.3051 50.0415C92.7045 50.0725 93.1045 50.1027 93.5101 50.1065C94.9292 50.0932 95.6877 48.8654 95.0377 47.5976C94.8898 47.3018 94.6524 46.9734 94.3707 46.8415C93.3301 46.3701 92.6051 45.3703 91.4098 45.1505C91.1041 45.0951 90.8412 44.7924 90.5649 44.5829C90.1515 44.2835 89.7733 43.9047 89.3249 43.6659C87.6171 42.7496 85.9476 41.7854 84.3222 40.7265C83.7177 40.3275 82.9593 40.1603 82.282 39.869C81.8608 39.6863 81.4115 39.5171 81.0624 39.2443C79.7453 38.2031 78.1864 37.614 76.751 36.7945C76.6984 36.7641 76.6595 36.7119 76.6062 36.7013C74.255 36.0552 72.4205 34.3943 70.2346 33.4122C68.8854 32.804 67.6809 31.8768 66.3644 31.1971C64.2312 30.1053 62.1716 28.886 59.9819 27.8921C57.8072 26.907 55.6134 25.9204 53.6096 24.5527C52.4907 23.7864 51.177 23.3081 49.9573 22.6833C48.8528 22.1166 47.7517 21.6304 46.9907 20.4685C46.346 19.4842 45.1982 19.0624 43.8974 19.6455C43.7349 19.5314 43.5318 19.4343 43.3716 19.2813C42.1732 18.1376 40.7945 17.2712 39.2627 16.6371C37.7716 16.0171 37.7762 16.0091 36.97 14.701C36.6569 14.5903 36.332 14.4632 36.006 14.3748C34.8542 14.0612 34.0505 14.5595 33.9542 15.7586C33.8175 17.4252 33.7773 19.0976 33.6907 20.7622C33.6731 21.1037 33.6702 21.4527 33.6405 21.7967C33.4629 23.9815 33.2852 26.1663 33.0807 28.3461C33.0225 29.0339 32.8477 29.7159 32.7803 30.3994C32.6624 31.706 32.2978 33.0094 32.6229 34.3414C32.6842 34.5978 32.5516 34.9121 32.4917 35.1889C32.0647 37.169 31.9335 39.1702 31.9215 41.1894C31.9129 42.0471 31.7848 42.9058 31.6423 43.7563C31.3825 45.2222 31.4648 46.7338 30.9667 48.182C30.6922 48.9669 31.1337 49.5119 31.952 49.6435C32.235 49.6869 32.5312 49.7072 32.8056 49.6457C34.7654 49.2127 36.6837 49.6078 38.5911 49.9371C39 50.0032 39.3686 50.0546 39.7585 49.9292C40.3745 49.723 40.9723 49.7379 41.6094 49.8743C42.2191 50.0065 42.8677 50.0199 43.4924 50.0397C43.886 50.046 44.3657 50.0925 44.6613 49.8914C45.5806 49.2792 46.5293 49.4957 47.4903 49.5695C47.7749 49.5936 48.0616 49.6487 48.3375 49.6179C51.435 49.28 54.5127 49.6828 57.5979 49.6587C58.6181 49.6466 59.6418 49.8362 60.6641 49.6841C60.8356 49.6631 61.0126 49.6655 61.178 49.6898C62.763 49.9742 64.3517 49.9781 65.9361 49.6598C66.152 49.6134 66.391 49.6813 66.618 49.702C67.4708 49.7738 68.3329 49.9509 69.1791 49.8978C69.8062 49.8786 70.1318 50.2271 70.6765 50.5916ZM68.1281 46.5518C67.695 46.9232 67.1502 46.7998 66.6545 46.8142C65.7993 46.8312 64.9341 46.7129 64.0791 46.7811C61.7284 46.9788 59.392 46.8426 57.067 46.6334C54.0466 46.3741 51.0218 46.4831 47.9986 46.5027C47.0129 46.5049 46.0632 46.4281 45.1421 46.217C44.7224 44.6699 44.3698 43.1627 43.9064 41.6913C43.5827 40.6513 43.1643 39.6373 42.0523 39.1352C41.7512 39.0017 41.5228 38.7093 41.2799 38.4586C40.7072 37.8665 39.9952 37.5158 39.2138 37.2854C38.0148 36.934 36.8261 36.5481 35.4202 36.1079C35.5701 33.8168 35.6011 31.507 35.9629 29.1577C36.9931 29.06 37.9567 28.9748 38.9089 28.8927C40.3823 28.7503 41.7636 28.2339 42.824 27.2411C43.773 26.3549 44.722 25.3987 45.365 24.2147C45.4926 23.9771 45.7047 23.799 45.8227 23.6462C46.0077 23.6531 46.0785 23.6335 46.1159 23.6551C49.1826 25.437 52.4342 26.8635 55.4855 28.6555C57.9969 30.1262 60.5712 31.5026 63.1258 32.8984C64.1754 33.4738 65.2461 34.0125 66.3048 34.5539C67.4239 35.1301 68.5556 35.6828 69.6661 36.2743C69.9391 36.4213 70.1448 36.7016 70.3564 36.9035C68.1537 41.7709 68.0323 41.9813 68.1281 46.5518ZM73.0176 38.1994C73.928 38.6551 74.7047 39.0134 75.4518 39.4247C77.0536 40.3 78.6426 41.1975 80.2358 42.0879C82.6244 43.4272 85.0118 44.7668 87.3909 46.1207C87.6673 46.2803 88.0266 46.3975 88.0309 46.8207C87.9933 46.8691 87.9568 46.949 87.9258 46.9512C85.4714 46.9679 83.0163 46.9842 80.5623 46.9819C79.2992 46.9844 78.034 46.8157 76.7948 46.9828C75.6336 47.1344 74.5016 47.0129 73.3779 46.945C72.304 46.8772 70.8664 45.9566 71.0842 44.477C71.2082 43.6254 71.3481 42.7629 71.3567 41.9051C71.3771 40.4731 72.1244 39.4195 73.0176 38.1994ZM35.2203 40.1751C37.4988 39.8264 38.4738 39.9974 39.8134 41.1026C41.3329 42.3616 42.2177 43.9457 42.0991 46.1147C41.0282 46.1283 39.9565 46.1414 38.8902 46.147C38.2639 46.1465 37.6503 46.2638 37.0282 46.015C36.512 45.8072 35.8546 45.879 35.4006 45.5966C34.75 45.1911 35.3249 44.4193 35.131 43.8261C34.747 42.6311 34.9268 41.4399 35.2203 40.1751ZM43.2284 22.389C42.8757 23.1382 42.6331 23.8512 41.9754 24.2841C41.166 24.8088 40.3743 25.5255 39.4817 25.7123C38.4752 25.9235 37.3537 26.2988 36.2149 25.6719C36.191 25.2661 36.1539 24.8133 36.1433 24.3663C36.094 22.8324 36.6727 21.3308 36.3267 19.7775C36.2328 19.3716 36.5032 19.0061 37.1169 18.8389C38.9917 20.1024 41.1854 21.0379 43.2284 22.389Z" fill="black"></path>
  <path d="M75.6441 25.737C75.4849 25.7192 75.3338 25.7078 75.1877 25.6969C74.8859 25.6732 74.6099 25.6516 74.3458 25.5845C73.6796 25.4162 73.3563 24.8635 73.526 24.182C73.7002 23.4563 73.8967 22.73 74.0921 22.0073C74.1518 21.7862 74.2117 21.5658 74.271 21.3456C74.7705 19.4861 74.853 17.5745 74.8753 15.6565C74.8799 15.2137 74.7063 14.839 74.3229 14.5686C73.9832 14.3326 73.6666 14.0628 73.35 13.7931C72.8149 13.3375 72.2801 12.8826 71.6361 12.5871C71.4902 12.5207 71.3441 12.4537 71.1989 12.3871C70.7589 12.1859 70.3208 11.9856 69.8768 11.7907C69.6965 11.7121 69.5099 11.6503 69.3231 11.5878C68.8974 11.4468 68.4732 11.3052 68.1288 10.9676C68.0345 10.8749 67.8874 10.8179 67.76 10.791C66.8913 10.632 66.1434 10.1961 65.3965 9.76069C64.9837 9.52008 64.571 9.27947 64.1389 9.08642C63.7138 8.89707 63.3051 8.67734 62.8695 8.44396C62.7634 8.38715 62.6551 8.32877 62.5451 8.27024C62.4856 8.2387 62.4251 8.20673 62.3637 8.17434C62.242 7.56862 62.6065 7.13423 62.9668 6.70549L63.019 6.64359C63.7957 5.71148 64.7902 5.64625 65.5693 6.6009C66.3178 7.51365 67.2476 8.02194 68.2789 8.45252C69.3858 8.90677 70.4844 9.39552 71.4739 10.1165C71.7583 10.3257 72.0936 10.4591 72.4286 10.5919C72.6122 10.6645 72.796 10.7378 72.9716 10.823C73.2981 10.9855 73.6237 11.1644 73.9279 11.3812C74.0925 11.494 74.2398 11.6368 74.3789 11.7707C74.4493 11.8389 74.5183 11.9052 74.5859 11.9641C74.9878 11.7574 74.9314 11.4641 74.8822 11.208L74.8777 11.1817C74.643 9.86829 74.6995 8.55775 74.7555 7.2458C74.7975 6.2689 74.8389 5.2906 74.7611 4.31103C74.9559 3.595 74.8904 2.86493 74.8255 2.13458C74.8156 2.02375 74.8057 1.91292 74.7964 1.80182C74.7565 1.3 75.036 1.01714 75.5058 0.979897C76.1249 0.930665 76.68 1.1724 77.2103 1.46218C77.5648 1.65959 77.6447 2.05533 77.7035 2.43596C77.8763 3.51028 77.8336 4.5765 77.4832 5.58685C77.3407 6.00038 77.3013 6.41097 77.26 6.83347L77.259 6.84749C77.2519 6.92242 77.2443 6.99832 77.2361 7.07449C77.0991 8.35116 77.1376 9.63379 77.1758 10.9157L77.1761 10.9164C77.2104 12.0659 77.2452 13.2145 77.1528 14.3576C77.1349 14.5562 77.117 14.7548 77.1011 14.9542C77.0909 15.0792 77.0819 15.2054 77.0746 15.3317C76.9995 16.2581 76.9334 17.189 76.8895 18.1194C76.878 18.3491 76.871 18.582 76.8639 18.8149C76.83 19.9266 76.7958 21.0585 76.2634 22.0815C76.2536 22.0997 76.2414 22.122 76.2323 22.144C76.2228 22.1693 76.2155 22.1938 76.2194 22.2123C76.435 22.9823 76.2142 23.6578 75.9832 24.3654C75.8413 24.8011 75.6956 25.248 75.6441 25.737Z" fill="black"></path>
  <path d="M14.1122 28.7369C14.5576 29.3691 15.1324 29.6369 15.6786 29.8909C15.9893 30.0354 16.2914 30.1761 16.5555 30.3763C16.8083 30.5681 17.0767 30.7378 17.344 30.9071C17.8922 31.2534 18.4384 31.5988 18.8525 32.1332C19.4604 32.1444 19.8527 32.5124 20.2597 32.894C20.5418 33.1594 20.8311 33.4309 21.2052 33.5943C21.1369 33.7289 21.0743 33.8614 21.0115 33.9915L21.0118 33.9922C20.8678 34.294 20.7308 34.5827 20.5537 34.8421C20.1637 35.3954 19.6582 35.4769 19.1275 35.0742C18.615 34.6917 18.1185 34.2862 17.6214 33.8793C17.5267 33.802 17.4316 33.7241 17.3366 33.6461C17.2773 33.5985 17.2185 33.5499 17.1592 33.5022C15.9682 32.5335 14.6737 31.7348 13.2639 30.9798C13.1841 31.1365 13.1057 31.2823 13.0299 31.4223C12.864 31.7294 12.7148 32.0052 12.6101 32.2966C12.4108 32.8516 12.2291 33.4167 12.048 33.9814L12.0466 33.986C11.9318 34.3447 11.8168 34.7027 11.6969 35.0586L11.6903 35.0788C11.609 35.3332 11.5206 35.6087 11.3596 35.8041C11.1084 36.1064 11.0249 36.4049 11.0353 36.8115C11.0418 37.0712 10.9291 37.3337 10.8193 37.5911C10.7822 37.6776 10.7462 37.7629 10.7139 37.8475C10.6074 38.1196 10.4872 38.3834 10.3575 38.6661L10.3515 38.6796C10.3217 38.7457 10.2908 38.813 10.2604 38.8816C9.82983 38.9871 9.38987 38.838 8.96721 38.659C8.30597 38.3749 8.06728 37.7382 8.34674 37.1667C8.47496 36.903 8.57836 36.6249 8.68106 36.347C8.80499 36.012 8.92849 35.678 9.09594 35.3727C9.72053 34.2315 10.1478 33.007 10.5752 31.7809C10.682 31.4742 10.7899 31.1662 10.8996 30.8608C10.9408 30.7454 10.9607 30.6183 10.9786 30.4966C10.9874 30.4404 10.9949 30.3853 11.0053 30.3332C10.7321 29.6633 10.1897 29.4399 9.59969 29.2654C8.89476 29.0592 8.19727 28.8348 7.49735 28.6041C5.86679 28.0788 4.21737 27.7516 2.57877 27.9672C2.14634 27.6861 2.0624 27.3152 2.09977 26.9366C2.12383 26.698 2.18606 26.4606 2.24802 26.2226C2.26793 26.1475 2.28811 26.0732 2.30636 25.9979C2.31847 25.9483 2.33031 25.8981 2.34118 25.8473C2.4585 25.3313 2.78347 25.0685 3.28663 24.9807C4.20725 24.8302 5.14314 24.8333 5.94134 25.3371C6.40267 25.6287 6.90198 25.7966 7.40129 25.9644C7.76492 26.0861 8.12882 26.2085 8.47743 26.3785C9.14105 26.7082 9.85089 26.9334 10.5617 27.159L10.5636 27.1599C10.8659 27.2556 11.1694 27.3524 11.4686 27.4565C11.5488 27.4856 11.634 27.4967 11.7124 27.5066C11.7529 27.5118 11.7907 27.5164 11.8256 27.5237C11.8377 27.5135 11.8493 27.5042 11.8608 27.4965C11.8731 27.4869 11.8853 27.479 11.8961 27.4716C11.9291 27.4492 11.9536 27.4318 11.9593 27.4111C12.1415 26.5733 12.3565 25.7436 12.5722 24.9136L12.5724 24.9119C12.9049 23.631 13.2368 22.3504 13.4487 21.0375C13.5082 20.6705 13.5045 20.2894 13.5002 19.9006C13.498 19.7226 13.4957 19.5423 13.5002 19.3609C14.4965 18.9685 15.2586 19.4182 15.9827 19.921C16.1737 20.0524 16.2682 20.4112 16.2959 20.674C16.371 21.4204 16.3879 22.1885 15.9841 22.8386C15.576 23.4839 15.3414 24.2049 15.1091 24.9194C15.0729 25.0288 15.0375 25.1387 15.001 25.2475C14.7861 25.9696 14.6087 26.7078 14.4325 27.4407L14.4314 27.4443C14.3273 27.8783 14.2234 28.3106 14.1122 28.7369Z" fill="black"></path>
</svg>