<svg class="u-icon-graphic u-icon-graphic--cone" width="28" height="40" viewBox="0 0 28 40" fill="#FED601" xmlns="http://www.w3.org/2000/svg">
<path class="u-icon__background" d="M1.40507 31.1396L11.869 2.34393L22.3839 31.0565C21.2715 31.7551 17.7032 33.3747 12.3285 34.2669C6.95426 35.1596 2.80704 32.5542 1.40507 31.1396H1.40507Z"></path>
<path d="M15.057 37.2889C13.0936 37.2401 10.9468 37.1928 8.79926 37.1274C7.634 37.0936 6.52339 36.8471 5.49723 36.3541C4.95768 36.0954 4.50811 35.7404 4.08708 35.3334C3.30924 34.5702 3.21056 33.6475 3.4924 32.6468C3.61767 32.2066 3.84899 31.7873 4.02286 31.358C4.10736 31.1569 4.18197 30.9569 4.24715 30.7527C4.67948 29.3696 5.19871 28.0174 5.83448 26.6903C6.38599 25.5412 6.76675 24.3256 7.20617 23.1332C7.53829 22.2341 7.8505 21.3276 8.17267 20.4247C8.4858 19.5497 8.80843 18.6832 9.10692 17.8043C9.30233 17.2236 9.52702 16.6498 9.75217 16.0717C10.23 14.8631 10.7805 13.6778 11.1808 12.4424C11.5627 11.2721 12.0558 10.1218 12.5244 8.97351C12.6417 8.68392 12.7251 8.40116 12.7985 8.10086C12.9549 7.4447 13.174 6.79859 13.3785 6.15336C13.4621 5.88398 13.6382 5.67301 13.9072 5.51089C14.4058 5.21197 14.7248 5.21551 15.0591 5.64588C15.2409 5.88049 15.3607 6.16475 15.4705 6.44054C15.8196 7.30254 16.1448 8.1703 16.4892 9.03307C16.769 9.72628 17.0483 10.4238 17.3519 11.1065C17.5959 11.6518 17.8586 12.1912 18.1508 12.7154C18.601 13.5349 18.9071 14.4129 19.2992 15.2542C19.866 16.4767 20.3749 17.7295 21.0951 18.8829C21.6972 19.8481 22.3233 20.807 22.7861 21.8399C23.2388 22.8548 23.7297 23.8496 24.2643 24.8232C24.65 25.5329 25.1182 26.2098 25.4755 26.9304C26.0359 28.062 26.4953 29.2361 27.0656 30.3623C27.7299 31.6649 26.8373 33.3308 25.7392 34.0762C25.4472 34.2761 25.1499 34.4672 24.8522 34.6626C23.6873 35.4393 22.4281 36.0168 21.0693 36.3814C19.4986 36.8047 17.9173 37.1289 16.2984 37.2044C15.9506 37.2298 15.5981 37.256 15.057 37.2889ZM24.1871 27.9192C24.0135 27.5431 23.9474 27.3057 23.8096 27.1229C23.2642 26.4 22.8529 25.6101 22.4897 24.7901C22.3804 24.5463 22.232 24.3139 22.0988 24.0807C21.8169 23.5879 21.5302 23.0953 21.2535 22.5979C20.9068 21.9675 20.6231 21.2975 20.2144 20.7077C19.5051 19.6807 19.133 18.52 18.6975 17.3808C18.6478 17.2423 18.5784 17.1103 18.509 16.9779C18.2066 16.395 17.842 15.8303 17.607 15.2208C17.3572 14.5846 16.9726 14.0072 16.7906 13.3396C16.7094 13.0578 16.5609 12.7757 16.3741 12.5458C15.9617 12.0379 15.756 11.4315 15.6082 10.8349C15.4502 10.207 15.0732 9.81552 14.584 9.37641C14.3762 10.1356 13.9293 10.7363 13.6429 11.4142C13.2112 12.4327 12.5266 13.3623 12.2646 14.4483C12.2236 14.6238 12.1094 14.7856 12.0297 14.9544C11.8179 15.4361 11.5967 15.9137 11.3949 16.3996C11.2401 16.7732 11.124 17.1535 10.9692 17.5271C10.6596 18.27 10.3935 19.0284 10.074 19.7672C9.60909 20.8426 9.45436 22.0038 8.96032 23.081C8.90858 23.1936 8.9154 23.3208 8.8684 23.4374C8.80282 23.6096 8.75205 23.7996 8.63764 23.9433C8.39041 24.2584 8.29322 24.6104 8.23 24.9693C8.09046 25.7655 7.79018 26.503 7.33982 27.2C7.27338 27.3039 7.18773 27.4138 7.1699 27.5291C7.0801 28.0536 6.79553 28.5077 6.56964 28.986C6.52698 29.0751 6.56707 29.1955 6.56943 29.3823C7.02646 29.1724 7.40103 28.9947 7.77617 28.8214C9.09276 28.2089 10.512 28.0495 11.9116 27.8186C12.9918 27.6392 14.0832 27.5184 15.1693 27.3931C15.6132 27.3436 16.0625 27.3067 16.4982 27.3443C17.0111 27.3905 17.514 27.3872 18.0257 27.3422C19.0492 27.2484 20.0778 27.1491 21.086 27.3339C21.5802 27.4267 22.0839 27.4917 22.5782 27.5845C23.053 27.6693 23.5088 27.774 24.1871 27.9192ZM25.4919 32.0787C25.2734 31.614 25.1086 31.1915 24.8765 30.8051C24.7579 30.6121 24.4809 30.5104 24.3528 30.3179C24.1314 29.9944 23.7053 29.9654 23.4365 29.727C22.6739 29.0583 21.6393 29.0529 20.6942 28.8738C20.1127 28.7634 19.4805 28.8429 18.867 28.8754C17.205 28.9631 15.5418 28.9548 13.8756 29.0742C12.6243 29.1642 11.3814 29.1303 10.1737 29.577C10.1162 29.5991 10.0435 29.5806 9.9807 29.6026C9.37409 29.8125 8.71751 29.8615 8.14624 30.1878C7.86784 30.3457 7.57938 30.4908 7.28617 30.6315C6.82508 30.8507 6.36291 31.0246 6.16247 31.5788C6.04572 31.9089 5.7297 32.1829 5.49682 32.4795C4.964 33.1676 5.03478 34.1923 5.72232 34.6557C6.22489 34.9984 6.77972 35.3107 7.36748 35.5073C7.82858 35.6613 8.37504 35.6826 8.87747 35.643C9.62566 35.5841 10.3569 35.6715 11.0735 35.7508C12.0709 35.8632 13.0659 35.7893 14.0555 35.6971C14.9878 35.6084 15.9112 35.6344 16.839 35.6005C17.2593 35.584 17.6605 35.5735 18.0704 35.4711C18.4461 35.38 18.827 35.2885 19.2033 35.2063C19.7043 35.0941 20.2307 35.053 20.712 34.8737C21.6452 34.5254 22.6334 34.2742 23.4474 33.6511C23.5909 33.542 23.818 33.5282 23.9862 33.4358C24.5813 33.0995 25.1569 32.7457 25.4919 32.0787Z"></path>
</svg>